{"glyphs":{"0":{"ha":791,"x_min":60,"x_max":731,"o":"m 60 509 q 395 1017 60 1017 q 731 509 731 1017 q 395 0 731 0 q 60 509 60 0 m 629 509 q 395 916 629 916 q 161 509 161 916 q 395 102 161 102 q 629 509 629 102 z "},"1":{"ha":646,"x_min":153,"x_max":533,"o":"m 292 795 l 153 795 l 153 859 q 317 1017 297 859 l 394 1017 l 394 102 l 533 102 l 533 0 l 153 0 l 153 102 l 292 102 l 292 795 z "},"2":{"ha":766,"x_min":74,"x_max":705,"o":"m 412 489 q 603 714 603 572 q 389 916 603 916 q 176 714 176 916 l 74 714 q 389 1017 74 1017 q 705 714 705 1017 q 446 391 705 503 l 316 335 q 176 102 176 277 l 705 102 l 705 0 l 74 0 l 74 102 q 282 433 74 345 l 412 489 z "},"3":{"ha":775,"x_min":66,"x_max":696,"o":"m 381 584 q 574 750 574 584 q 381 916 574 916 q 188 750 188 916 l 86 750 q 381 1017 86 1017 q 676 751 676 1017 q 584 536 676 602 q 696 292 696 467 q 381 0 696 0 q 66 294 66 0 l 168 294 q 381 102 168 102 q 595 294 595 102 q 381 485 595 485 l 328 485 l 328 584 l 381 584 z "},"4":{"ha":740,"x_min":27,"x_max":705,"o":"m 473 835 l 150 352 l 473 352 l 473 835 m 473 1017 l 575 1017 l 575 352 l 705 352 l 705 250 l 575 250 l 575 0 l 473 0 l 473 250 l 27 250 l 27 352 l 473 1017 z "},"5":{"ha":777,"x_min":84,"x_max":705,"o":"m 705 339 q 408 0 705 0 q 84 269 118 0 l 186 269 q 408 102 220 102 q 603 339 603 102 q 415 576 603 576 q 220 490 278 576 l 121 490 l 169 1017 l 657 1017 l 657 916 l 260 916 l 235 644 q 415 678 308 678 q 705 339 705 678 z "},"6":{"ha":734,"x_min":58,"x_max":688,"o":"m 165 389 q 373 102 194 102 q 587 322 587 102 q 373 543 587 543 q 165 389 195 543 m 373 0 q 58 509 58 0 q 407 1017 58 1017 q 688 779 688 1017 l 587 779 q 407 916 587 916 q 162 586 184 916 q 373 644 239 644 q 688 322 688 644 q 373 0 688 0 z "},"7":{"ha":748,"x_min":67,"x_max":698,"o":"m 698 916 l 336 0 l 227 0 l 589 916 l 67 916 l 67 1017 l 698 1017 l 698 916 z "},"8":{"ha":731,"x_min":50,"x_max":681,"o":"m 366 916 q 172 746 172 916 q 366 576 172 576 q 559 746 559 576 q 366 916 559 916 m 366 475 q 152 288 152 475 q 366 102 152 102 q 579 288 579 102 q 366 475 579 475 m 161 529 q 71 746 71 595 q 366 1017 71 1017 q 661 746 661 1017 q 570 529 661 595 q 681 288 681 459 q 366 0 681 0 q 50 288 50 0 q 161 529 50 459 z "},"9":{"ha":734,"x_min":45,"x_max":676,"o":"m 569 629 q 361 916 540 916 q 147 695 147 916 q 361 475 147 475 q 569 629 539 475 m 361 1017 q 676 509 676 1017 q 327 0 676 0 q 45 239 45 0 l 147 239 q 327 102 147 102 q 572 431 549 102 q 361 373 495 373 q 45 695 45 373 q 361 1017 45 1017 z "}," ":{"ha":386,"x_min":0,"x_max":0,"o":""},"!":{"ha":591,"x_min":305,"x_max":422,"o":"m 415 1013 l 415 543 l 388 233 l 340 233 l 313 543 l 313 1013 l 415 1013 m 422 144 l 422 0 l 305 0 l 305 144 l 422 144 z "},"\"":{"ha":493,"x_min":72,"x_max":423,"o":"m 72 985 l 201 985 l 201 831 l 163 644 l 109 644 l 72 831 l 72 985 m 294 985 l 423 985 l 423 831 l 386 644 l 332 644 l 294 831 l 294 985 z "},"#":{"ha":772,"x_min":19,"x_max":752,"o":"m 673 968 l 623 696 l 752 696 l 752 602 l 605 602 l 562 359 l 708 359 l 708 265 l 545 265 l 491 -27 l 386 -27 l 438 265 l 267 265 l 212 -27 l 106 -27 l 159 265 l 19 265 l 19 359 l 177 359 l 220 602 l 71 602 l 71 696 l 239 696 l 288 968 l 394 968 l 344 696 l 517 696 l 566 968 l 673 968 m 500 602 l 328 602 l 283 359 l 456 359 l 500 602 z "},"$":{"ha":772,"x_min":47,"x_max":722,"o":"m 340 1069 l 422 1069 l 422 994 q 662 852 597 982 q 691 734 688 800 l 691 721 l 582 721 q 501 875 581 828 q 440 896 473 890 q 422 897 431 897 l 422 551 q 604 485 561 509 q 722 271 722 418 q 627 41 722 126 q 594 17 612 28 q 422 -32 526 -23 l 422 -175 l 340 -175 l 340 -32 q 66 144 126 -18 q 47 264 47 199 q 48 289 47 277 l 158 289 q 187 153 168 186 q 193 143 190 149 q 340 64 241 77 l 340 441 q 165 514 211 481 q 66 717 66 585 q 260 978 66 920 q 340 994 297 989 l 340 1069 m 340 562 l 340 896 q 183 772 207 878 q 179 730 179 753 q 340 562 179 606 m 422 429 l 422 64 q 549 115 507 74 q 608 254 608 171 q 543 380 608 339 q 422 429 503 406 z "},"%":{"ha":1234,"x_min":40,"x_max":1193,"o":"m 276 951 q 464 860 393 951 l 489 821 q 513 711 513 770 q 426 530 513 602 q 277 476 361 476 q 93 564 165 476 q 40 714 40 631 q 127 899 40 827 q 276 951 193 951 m 276 854 q 159 790 201 854 l 143 758 q 136 714 136 736 q 198 597 136 640 q 277 574 235 574 q 394 636 353 574 q 418 713 418 671 q 351 833 418 791 q 276 854 318 854 m 846 985 l 937 985 l 389 -27 l 297 -27 l 846 985 m 956 447 q 1144 355 1074 447 q 1193 208 1193 292 q 1105 28 1193 98 q 957 -26 1040 -26 q 772 61 844 -26 q 719 211 719 127 q 808 395 719 323 q 956 447 873 447 m 956 350 q 839 288 880 350 q 815 211 815 253 q 880 93 815 135 q 957 71 915 71 q 1074 134 1031 71 q 1097 208 1097 168 q 1030 329 1097 288 l 998 343 q 956 350 977 350 z "},"&":{"ha":926,"x_min":72,"x_max":884,"o":"m 684 464 l 795 464 q 715 210 795 334 l 884 0 l 733 0 l 647 109 q 540 18 579 41 q 357 -32 462 -32 q 118 82 195 -32 q 72 244 72 150 q 144 431 72 357 q 297 541 194 481 q 187 729 199 663 q 184 766 184 747 q 275 939 184 873 q 422 985 338 985 q 611 893 547 985 l 631 854 q 647 791 644 825 q 648 766 648 779 q 572 603 648 671 q 456 525 532 567 l 642 298 q 684 458 684 374 l 684 464 m 395 599 q 529 721 508 669 q 538 770 538 742 q 476 873 538 842 q 418 888 450 888 q 307 818 334 888 q 298 768 298 796 q 333 673 298 722 l 395 599 m 581 191 l 358 468 q 199 315 227 385 q 189 254 189 288 q 264 111 189 164 q 370 77 312 77 q 558 167 464 77 q 581 191 569 178 z "},"'":{"ha":265,"x_min":66,"x_max":197,"o":"m 66 985 l 197 985 l 197 831 l 159 644 l 104 644 l 66 831 l 66 985 z "},"(":{"ha":777,"x_min":170,"x_max":472,"o":"m 396 1013 l 472 1013 q 283 416 300 734 q 282 359 282 387 q 452 -259 282 36 q 472 -294 461 -277 l 396 -294 q 188 178 239 -89 q 170 359 170 272 q 298 857 170 608 q 396 1013 342 942 z "},")":{"ha":777,"x_min":305,"x_max":608,"o":"m 382 -294 l 305 -294 q 494 301 477 -16 q 496 358 496 330 q 326 978 496 682 q 305 1013 316 996 l 382 1013 q 590 541 538 807 q 608 358 608 446 q 479 -138 608 110 q 382 -294 436 -223 z "},"*":{"ha":896,"x_min":305,"x_max":726,"o":"m 472 1013 l 559 1013 l 553 857 l 700 909 l 726 828 l 576 786 l 673 663 l 602 612 l 516 742 l 429 612 l 359 663 l 455 786 l 305 828 l 332 909 l 479 857 l 472 1013 z "},"+":{"ha":811,"x_min":69,"x_max":741,"o":"m 741 371 l 741 273 l 454 273 l 454 -14 l 357 -14 l 357 273 l 69 273 l 69 371 l 357 371 l 357 659 l 454 659 l 454 371 l 741 371 z "},",":{"ha":386,"x_min":121,"x_max":267,"o":"m 121 144 l 267 144 l 267 -22 q 121 -204 267 -204 l 121 -151 q 195 -105 180 -149 q 204 -24 204 -79 l 204 0 l 121 0 l 121 144 z "},"-":{"ha":462,"x_min":64,"x_max":394,"o":"m 394 433 l 394 334 l 64 334 l 64 433 l 394 433 z "},".":{"ha":386,"x_min":121,"x_max":265,"o":"m 265 144 l 265 0 l 121 0 l 121 144 l 265 144 z "},"/":{"ha":386,"x_min":-11,"x_max":395,"o":"m 318 1013 l 395 1013 l 66 -27 l -11 -27 l 318 1013 z "},":":{"ha":386,"x_min":153,"x_max":297,"o":"m 297 144 l 297 0 l 153 0 l 153 144 l 297 144 m 297 728 l 297 583 l 153 583 l 153 728 l 297 728 z "},";":{"ha":386,"x_min":153,"x_max":298,"o":"m 298 728 l 298 583 l 154 583 l 154 728 l 298 728 m 153 144 l 298 144 l 298 -22 q 153 -204 298 -204 l 153 -151 q 227 -105 212 -149 q 236 -24 236 -79 l 236 0 l 153 0 l 153 144 z "},"<":{"ha":811,"x_min":62,"x_max":741,"o":"m 62 275 l 62 371 l 741 659 l 741 549 l 195 325 l 741 97 l 741 -12 l 62 275 z "},"=":{"ha":811,"x_min":69,"x_max":741,"o":"m 741 490 l 741 393 l 69 393 l 69 490 l 741 490 m 741 252 l 741 154 l 69 154 l 69 252 l 741 252 z "},">":{"ha":811,"x_min":69,"x_max":748,"o":"m 748 371 l 748 275 l 69 -12 l 69 97 l 616 321 l 69 549 l 69 659 l 748 371 z "},"?":{"ha":1075,"x_min":305,"x_max":905,"o":"m 656 277 l 532 277 l 532 353 q 570 473 532 422 q 643 550 594 504 q 676 579 652 558 q 780 762 779 671 q 695 901 780 860 l 652 916 q 602 921 629 921 q 447 840 488 921 q 423 704 423 793 l 305 704 q 368 931 305 850 q 555 1026 431 1012 q 610 1029 582 1029 q 862 914 785 1029 l 884 872 q 905 762 905 822 q 834 583 905 665 q 766 514 808 551 q 665 396 679 433 q 656 342 656 375 l 656 277 m 656 144 l 656 0 l 532 0 l 532 144 l 656 144 z "},"@":{"ha":1409,"x_min":47,"x_max":1320,"o":"m 923 696 l 1038 696 l 913 307 q 897 237 897 258 q 937 182 897 200 q 966 176 951 176 q 1128 277 1055 176 q 1200 496 1200 375 q 1065 786 1200 663 q 732 922 927 914 l 711 922 q 349 781 507 922 l 302 733 q 165 379 165 576 q 311 49 165 183 q 686 -90 460 -90 q 954 -45 795 -90 l 993 -138 q 679 -197 837 -197 q 247 -48 429 -197 q 51 294 77 90 q 47 358 47 326 q 179 753 47 572 q 267 850 218 807 q 626 1021 416 986 q 729 1029 677 1029 q 1130 889 960 1029 q 1316 571 1291 758 q 1320 513 1320 542 q 1201 203 1320 345 q 943 79 1095 79 q 790 186 809 79 q 593 86 699 86 q 414 182 479 86 q 366 340 366 250 q 476 608 366 492 q 723 725 583 724 q 892 604 840 725 l 923 696 m 715 636 q 554 538 623 636 q 491 339 491 450 q 557 199 491 245 q 629 175 590 175 q 770 265 709 175 q 838 449 817 332 q 846 503 844 479 l 846 512 q 789 616 846 581 q 715 636 755 636 z "},"ក":{"ha":1187,"x_min":140,"x_max":1214,"o":"m 313 547 q 333 528 326 541 q 338 503 338 518 q 335 477 338 492 l 248 68 q 223 17 240 34 q 181 0 207 0 q 145 17 155 0 q 140 38 140 25 q 143 67 140 50 l 234 495 q 214 492 224 492 l 212 492 q 178 515 191 494 q 170 540 170 528 q 173 556 170 548 q 212 595 182 576 q 391 708 311 671 q 555 746 471 746 q 720 710 637 746 q 905 604 802 675 q 1049 456 1006 532 q 1079 346 1079 402 q 1074 300 1079 323 l 1025 68 q 1001 17 1018 34 q 958 0 985 0 q 923 16 932 0 q 918 41 918 26 q 921 68 918 53 l 970 306 q 974 334 974 320 q 948 417 974 376 q 832 530 913 473 q 686 615 751 587 q 554 644 622 644 q 408 610 473 644 q 313 547 364 587 m 275 663 q 267 663 272 663 q 199 692 243 663 q 161 739 174 710 q 149 806 149 767 q 167 882 149 846 q 222 951 185 918 q 311 1001 259 985 q 422 1017 363 1017 q 536 991 482 1017 q 647 911 591 964 q 732 848 714 848 q 823 899 749 848 q 900 937 860 924 q 983 949 940 949 q 1068 930 1026 949 q 1152 870 1111 909 q 1214 757 1214 814 q 1192 697 1214 703 q 1185 696 1188 696 q 1151 720 1166 696 q 1080 798 1133 747 q 1028 836 1053 823 q 979 848 1002 848 q 893 823 930 848 q 797 765 838 785 q 728 746 755 746 q 665 768 701 746 q 583 831 628 789 q 498 895 538 873 q 425 916 459 916 q 295 878 339 916 q 251 810 251 840 q 287 757 251 782 q 315 715 315 737 q 312 701 315 708 q 275 663 301 669 z "},"ខ":{"ha":1024,"x_min":165,"x_max":967,"o":"m 370 629 q 414 645 395 645 q 452 621 437 645 q 460 592 460 606 q 429 546 460 566 q 323 511 372 511 q 273 522 296 511 q 190 635 205 552 q 182 712 182 673 q 194 813 182 761 q 312 962 214 906 q 571 1017 411 1017 q 734 998 636 1017 q 931 883 876 966 q 967 755 967 829 q 957 669 967 715 q 652 431 936 561 q 321 246 369 300 q 269 161 272 191 l 269 157 q 298 116 269 130 q 435 102 330 102 q 646 149 539 102 q 768 274 752 197 q 779 357 779 324 q 775 388 779 375 q 774 398 774 393 q 815 439 774 427 q 835 442 826 442 q 878 404 867 442 q 883 357 883 385 q 868 243 883 312 q 703 65 844 130 q 431 0 563 0 q 229 36 300 0 q 165 142 165 69 q 166 159 165 150 q 237 312 174 244 q 572 506 299 380 q 860 688 846 632 q 865 737 865 713 q 840 825 865 788 q 711 901 802 878 q 575 916 622 916 q 368 878 433 916 q 290 777 304 840 q 282 711 282 741 q 287 669 282 688 q 314 616 297 624 q 326 613 319 613 q 370 629 342 613 z "},"គ":{"ha":1187,"x_min":135,"x_max":1200,"o":"m 262 663 q 254 663 258 663 q 186 692 229 663 q 147 739 160 710 q 135 806 135 767 q 153 882 135 846 q 209 951 172 918 q 297 1001 245 985 q 409 1017 349 1017 q 523 991 469 1017 q 633 911 577 964 q 718 848 701 848 q 810 899 736 848 q 886 937 846 924 q 969 949 926 949 q 1055 930 1013 949 q 1139 870 1097 909 q 1200 757 1200 814 q 1178 697 1200 703 q 1171 696 1175 696 q 1137 720 1152 696 q 1066 798 1120 747 q 1015 836 1040 823 q 965 848 989 848 q 880 823 917 848 q 783 765 825 785 q 714 746 742 746 q 651 768 687 746 q 570 831 614 789 q 485 895 524 873 q 412 916 446 916 q 281 878 326 916 q 237 810 237 840 q 273 757 237 782 q 301 715 301 737 q 298 701 301 708 q 262 663 288 669 m 149 165 l 221 496 q 352 690 253 635 q 548 746 451 746 q 707 710 624 746 q 891 604 789 675 q 1036 456 993 532 q 1065 346 1065 402 q 1061 300 1065 323 l 1011 68 q 987 17 1004 34 q 945 0 971 0 q 909 16 918 0 q 904 41 904 26 q 907 68 904 53 l 957 306 q 960 334 960 320 q 935 417 960 376 q 819 530 900 473 q 673 615 737 587 q 547 644 608 644 q 407 606 473 644 q 321 477 341 568 l 261 196 q 381 300 315 257 q 509 339 445 339 q 640 299 572 339 q 671 256 671 280 q 662 227 671 242 q 623 201 646 201 q 585 214 606 201 q 510 237 546 237 q 422 205 474 237 q 333 124 376 171 q 199 0 230 0 q 151 41 170 0 q 142 97 142 63 q 149 165 142 127 z "},"ឃ":{"ha":1706,"x_min":147,"x_max":1706,"o":"m 939 103 q 895 47 920 70 q 755 0 842 0 l 306 0 q 233 25 254 0 q 220 71 220 42 q 223 102 220 85 l 378 838 q 381 867 381 854 q 375 897 381 885 q 336 916 365 916 q 287 888 307 916 q 255 804 267 860 q 251 772 251 785 q 268 746 251 746 l 269 746 q 303 696 303 746 q 269 644 303 645 q 165 688 193 644 q 147 759 147 715 q 155 822 147 787 q 221 968 176 920 q 336 1017 267 1017 q 454 966 409 1017 q 486 873 486 930 q 480 821 486 849 l 328 102 l 755 102 q 829 127 800 102 q 868 205 857 154 l 948 576 l 845 629 q 715 768 715 692 l 715 771 q 777 916 718 848 q 893 983 836 983 q 1034 934 951 983 l 1113 884 q 1153 831 1153 860 q 1145 805 1153 819 q 1107 779 1131 779 q 1069 791 1090 779 l 990 842 q 902 882 922 882 q 850 846 882 882 q 818 783 819 810 l 818 782 q 892 720 818 755 l 1064 631 l 981 243 q 1024 144 1002 179 q 1082 102 1051 102 l 1322 102 q 1396 127 1367 102 q 1435 205 1423 154 l 1508 542 l 1405 595 q 1276 734 1276 659 l 1276 737 q 1337 882 1278 814 q 1453 949 1396 949 q 1594 900 1511 949 l 1666 857 q 1706 804 1706 833 q 1699 778 1706 791 q 1660 752 1685 752 q 1623 764 1644 752 l 1550 808 q 1462 848 1482 848 q 1411 812 1442 848 q 1378 749 1379 776 l 1378 748 q 1452 686 1378 721 l 1624 597 l 1536 190 q 1462 47 1516 95 q 1322 0 1409 0 l 1082 0 q 965 62 1015 0 q 939 103 951 80 z "},"ង":{"ha":1119,"x_min":135,"x_max":1014,"o":"m 785 848 l 827 848 q 890 897 880 848 q 892 914 892 907 q 886 937 892 928 q 848 949 875 949 q 799 922 818 949 q 780 861 780 895 q 785 848 780 855 m 750 746 l 610 746 q 413 806 471 746 q 374 916 374 847 q 382 987 374 949 l 397 1059 q 401 1086 401 1074 q 390 1125 401 1109 q 333 1157 374 1149 q 279 1181 295 1165 q 267 1211 267 1194 q 268 1223 267 1217 q 293 1257 273 1247 q 319 1261 304 1261 q 349 1258 332 1261 q 479 1185 442 1240 q 503 1098 503 1149 q 496 1038 503 1071 l 482 966 q 479 935 479 949 q 501 878 479 899 q 611 848 534 848 l 680 848 q 678 863 678 855 q 721 1000 678 949 q 847 1051 764 1051 q 961 1003 915 1051 q 995 913 995 966 q 991 873 995 894 q 937 778 977 810 q 916 764 926 770 q 998 666 974 725 q 1014 578 1014 627 q 1002 488 1014 536 l 938 190 q 864 47 918 95 q 747 0 810 0 q 586 85 724 0 q 407 170 448 170 q 328 102 366 170 q 220 0 270 0 q 181 39 181 0 q 184 62 181 50 l 197 125 l 276 499 q 281 543 281 526 q 264 576 281 576 q 237 526 239 576 q 186 475 237 475 q 135 526 135 475 q 163 628 136 578 q 266 678 191 678 q 369 627 340 678 q 386 551 386 597 q 378 481 386 520 l 328 248 q 408 271 351 271 q 625 178 477 271 l 751 102 q 798 127 769 102 q 837 205 825 154 l 902 509 q 909 564 909 538 q 899 621 909 595 q 834 693 882 667 q 750 746 784 719 z "},"ច":{"ha":1187,"x_min":135,"x_max":1200,"o":"m 281 623 q 180 695 200 680 q 147 739 160 710 q 135 806 135 767 q 153 882 135 846 q 209 951 172 918 q 297 1001 245 985 q 409 1017 349 1017 q 523 991 469 1017 q 633 911 577 964 q 718 848 701 848 q 810 899 736 848 q 886 937 846 924 q 969 949 926 949 q 1055 930 1013 949 q 1139 870 1097 909 q 1200 757 1200 814 q 1178 697 1200 703 q 1171 696 1175 696 q 1137 720 1152 696 q 1066 798 1120 747 q 1015 836 1040 823 q 965 848 989 848 q 880 823 917 848 q 783 765 825 785 q 714 746 742 746 q 651 768 687 746 q 570 831 614 789 q 485 895 524 873 q 412 916 446 916 q 281 878 326 916 q 237 810 237 840 q 273 757 237 782 l 397 679 l 275 102 l 790 102 q 864 127 836 102 q 903 205 892 154 l 966 498 q 968 526 968 513 q 962 556 968 545 q 924 575 952 575 q 874 547 895 575 q 842 464 854 519 q 838 431 838 444 q 855 406 838 406 l 856 406 q 890 355 890 406 q 856 304 890 304 q 752 348 781 304 q 734 418 734 375 q 742 481 734 447 q 808 628 763 579 q 924 677 854 677 q 1042 625 996 677 q 1074 533 1074 590 q 1067 480 1074 509 l 1004 190 q 930 47 984 95 q 790 0 877 0 l 254 0 q 181 25 202 0 q 168 69 168 42 q 172 102 168 84 l 215 312 l 281 623 z "},"ឆ":{"ha":1221,"x_min":102,"x_max":1221,"o":"m 381 623 q 214 695 234 680 q 181 739 194 710 q 169 806 169 767 q 187 882 169 846 q 243 951 205 918 q 331 1001 279 985 q 429 1017 383 1017 q 543 991 489 1017 q 654 911 597 964 q 739 848 721 848 q 830 899 756 848 q 907 937 867 924 q 989 949 947 949 q 1075 930 1033 949 q 1159 870 1118 909 q 1221 757 1221 814 q 1198 697 1221 703 q 1192 696 1195 696 q 1158 720 1173 696 q 1086 798 1140 747 q 1035 836 1060 823 q 985 848 1009 848 q 900 823 937 848 q 804 765 845 785 q 734 746 762 746 q 671 768 707 746 q 590 831 635 789 q 505 895 545 873 q 432 916 466 916 q 315 878 359 916 q 271 810 271 840 q 314 757 271 782 l 497 679 l 425 339 q 605 287 517 339 q 754 168 692 235 q 865 102 816 102 q 939 127 910 102 q 977 205 966 154 l 1031 465 q 1034 493 1034 480 q 1028 523 1034 511 q 989 542 1018 542 q 940 514 960 542 q 913 465 920 486 q 911 455 911 459 q 931 440 911 440 l 932 440 q 966 390 966 440 q 932 338 966 339 q 828 382 857 338 q 809 446 809 412 q 814 482 809 463 q 874 595 829 546 q 989 644 920 644 q 1107 592 1062 644 q 1139 500 1139 557 q 1133 447 1139 475 l 1078 190 q 1005 47 1057 94 q 865 0 951 0 q 702 75 770 0 q 564 194 635 151 q 422 237 494 237 l 404 237 l 388 155 q 333 39 370 77 q 237 0 295 0 q 136 42 170 0 q 102 170 102 85 q 144 297 102 254 q 272 339 186 339 l 321 339 l 381 623 m 220 220 q 203 170 203 203 q 237 102 203 102 q 285 170 271 102 l 300 237 l 272 237 q 220 220 237 237 z "},"ជ":{"ha":1085,"x_min":135,"x_max":1077,"o":"m 304 248 q 384 271 328 271 q 602 178 454 271 l 727 102 q 774 127 745 102 q 813 205 802 154 l 886 540 q 909 592 893 576 q 939 604 922 604 q 951 602 944 604 q 985 574 977 597 q 989 547 989 563 q 986 514 989 532 l 914 190 q 840 47 894 95 q 723 0 787 0 q 562 85 700 0 q 383 170 425 170 q 304 102 342 170 q 197 0 246 0 q 157 39 157 0 q 160 62 157 50 l 174 125 l 281 623 q 180 695 200 680 q 147 739 160 710 q 135 806 135 767 q 153 882 135 846 q 209 951 172 918 q 297 1001 245 985 q 409 1017 349 1017 q 523 991 469 1017 q 633 911 577 964 q 715 864 667 880 q 827 848 764 848 q 926 879 889 848 q 975 951 964 910 q 976 967 976 959 q 951 1062 976 1003 q 836 1148 926 1126 q 785 1198 785 1164 q 788 1218 785 1208 q 840 1253 801 1253 q 873 1248 854 1253 q 1042 1112 1004 1212 q 1077 966 1077 1027 q 1074 932 1077 948 q 992 797 1055 848 q 827 746 930 746 q 679 767 743 746 q 570 831 615 789 q 485 895 524 873 q 412 916 446 916 q 281 878 326 916 q 237 810 237 840 q 273 757 237 782 l 397 679 l 304 248 z "},"ឈ":{"ha":2182,"x_min":149,"x_max":2209,"o":"m 282 302 l 256 180 q 252 143 252 158 q 255 121 252 130 q 283 102 261 102 q 346 144 307 102 q 393 226 385 186 q 395 235 395 231 q 382 260 395 249 q 334 286 368 275 l 282 302 m 1482 249 q 1527 144 1503 181 q 1585 102 1554 102 l 1825 102 q 1899 127 1870 102 q 1938 205 1927 154 l 2011 542 l 1908 595 q 1779 734 1779 659 l 1779 737 q 1841 882 1781 814 q 1957 949 1900 949 q 2097 900 2014 949 l 2169 857 q 2209 804 2209 833 q 2202 778 2209 791 q 2163 752 2188 752 q 2126 764 2147 752 l 2053 808 q 1965 848 1986 848 q 1914 812 1945 848 q 1881 749 1883 776 l 1881 748 q 1955 686 1881 721 l 2127 597 l 2039 190 q 1965 47 2019 95 q 1825 0 1912 0 l 1586 0 q 1468 62 1518 0 q 1430 126 1447 89 q 1380 71 1409 96 q 1199 0 1301 0 l 861 0 q 789 25 810 0 q 776 69 776 42 q 780 102 776 84 l 892 630 q 899 694 899 665 q 895 731 899 714 q 835 810 886 770 q 728 874 784 851 q 614 909 671 897 q 560 914 587 914 q 505 908 532 914 q 422 857 453 897 q 378 749 392 816 l 304 401 l 372 381 q 477 316 447 359 q 498 246 498 286 q 494 208 498 228 q 416 69 479 138 q 283 0 351 0 q 167 51 198 0 q 149 129 149 81 q 157 203 149 161 l 277 763 q 345 924 296 860 q 473 1006 393 987 q 561 1017 518 1017 q 626 1010 594 1017 q 768 968 698 996 q 907 882 838 940 q 994 760 978 825 q 1002 692 1002 728 q 992 609 1002 654 l 884 102 l 1202 102 q 1313 149 1261 102 q 1381 267 1366 195 l 1447 576 l 1343 629 q 1214 768 1214 692 l 1214 771 q 1276 916 1216 848 q 1392 983 1335 983 q 1532 934 1449 983 l 1625 878 q 1665 825 1665 853 q 1657 798 1665 812 q 1619 772 1643 772 q 1581 785 1603 772 l 1489 842 q 1400 882 1421 882 q 1349 846 1380 882 q 1316 783 1318 810 l 1316 782 q 1390 720 1316 755 l 1563 631 l 1482 249 z "},"ញ":{"ha":1809,"x_min":149,"x_max":1742,"o":"m 1301 -68 q 1508 -119 1446 -68 q 1554 -222 1554 -156 q 1548 -271 1554 -245 q 1440 -424 1527 -373 q 1205 -475 1355 -475 q 985 -445 1076 -475 q 840 -356 893 -416 q 718 -267 787 -296 q 564 -237 649 -237 q 405 -269 480 -237 q 266 -363 330 -300 q 209 -401 234 -394 q 197 -402 203 -402 q 166 -389 180 -402 q 153 -358 153 -375 q 155 -346 153 -352 q 191 -293 161 -322 q 366 -175 273 -214 q 566 -136 460 -136 q 759 -173 673 -136 q 912 -284 846 -210 q 1026 -351 952 -328 q 1208 -373 1100 -373 q 1375 -348 1315 -373 q 1444 -271 1434 -322 q 1447 -250 1447 -260 q 1419 -195 1447 -214 q 1301 -170 1383 -170 q 1250 -157 1267 -170 q 1233 -119 1233 -144 q 1250 -81 1233 -94 q 1301 -68 1267 -68 m 282 302 l 256 180 q 252 143 252 158 q 255 121 252 130 q 283 102 261 102 q 346 144 307 102 q 393 226 385 186 q 395 235 395 231 q 382 260 395 249 q 334 286 368 275 l 282 302 m 1131 665 q 1122 600 1130 640 l 1008 63 q 985 16 1001 31 q 943 0 968 0 q 907 20 916 0 q 903 45 903 31 q 907 81 903 61 l 1022 618 q 1029 672 1029 654 q 1024 724 1029 689 q 994 800 1019 758 q 941 862 968 842 q 890 882 915 882 l 787 758 q 722 720 753 720 q 652 768 690 720 l 584 852 q 489 916 528 916 q 422 857 453 897 q 378 749 392 816 l 304 401 l 372 381 q 477 316 447 359 q 498 246 498 286 q 494 208 498 228 q 416 69 479 138 q 283 0 351 0 q 167 51 198 0 q 149 129 149 81 q 157 203 149 161 l 277 763 q 345 924 296 860 q 470 1018 393 987 l 488 1018 q 654 927 575 1018 l 722 844 l 782 913 q 895 983 842 983 q 997 947 948 983 q 1081 853 1046 911 q 1116 779 1105 814 l 1263 886 q 1419 949 1350 949 q 1615 848 1488 949 q 1742 670 1742 746 q 1729 582 1742 640 l 1619 61 q 1596 15 1612 31 q 1554 0 1580 0 q 1518 18 1527 0 q 1513 43 1513 28 q 1516 71 1513 55 l 1628 592 q 1639 673 1639 649 q 1547 773 1639 698 q 1420 848 1454 848 q 1320 802 1385 848 l 1131 665 z "},"ដ":{"ha":1095,"x_min":155,"x_max":1082,"o":"m 302 248 q 382 271 326 271 q 600 178 452 271 l 725 102 q 772 127 743 102 q 811 205 800 154 l 884 540 q 907 592 891 576 q 937 604 920 604 q 949 602 942 604 q 983 574 975 597 q 987 547 987 563 q 984 514 987 532 l 912 190 q 838 47 892 95 q 721 0 785 0 q 560 85 698 0 q 381 170 422 170 q 302 102 340 170 q 195 0 244 0 q 155 39 155 0 q 158 62 155 50 l 172 125 l 279 623 q 300 665 285 650 q 342 678 317 678 q 378 661 369 678 q 384 637 384 652 q 380 611 384 626 l 302 248 m 510 1119 q 567 1076 567 1119 q 566 1068 567 1072 q 510 1017 561 1017 q 453 958 467 1017 q 451 936 451 947 q 499 852 451 884 q 705 814 557 814 q 901 856 842 814 q 979 970 960 898 q 981 994 981 982 q 956 1076 981 1038 q 833 1148 923 1126 q 781 1198 781 1164 q 785 1218 781 1208 q 836 1253 798 1253 q 869 1248 851 1253 q 1046 1126 1000 1212 q 1082 993 1082 1061 q 1078 951 1082 972 q 957 780 1051 848 q 685 712 862 712 q 406 781 485 712 q 347 918 347 833 q 353 977 347 946 q 510 1119 384 1119 z "},"ឋ":{"ha":1164,"x_min":147,"x_max":1225,"o":"m 375 897 q 336 916 365 916 q 287 888 307 916 q 255 804 267 860 q 251 772 251 785 q 268 746 251 746 l 269 746 q 303 696 303 746 q 269 644 303 645 q 165 688 193 644 q 147 759 147 715 q 155 822 147 787 q 221 968 176 920 q 336 1017 267 1017 q 454 966 409 1017 q 486 873 486 930 q 480 821 486 849 l 328 102 l 755 102 q 829 127 800 102 q 868 205 857 154 l 941 542 l 838 595 q 709 734 709 659 l 709 737 q 770 882 711 814 q 886 949 829 949 q 996 918 944 949 q 1058 896 1032 896 q 1078 900 1069 896 q 1121 970 1109 913 q 1123 996 1123 983 q 1099 1076 1123 1038 q 976 1148 1066 1126 q 924 1198 924 1164 q 928 1218 924 1208 q 979 1253 941 1253 q 1013 1248 994 1253 q 1190 1126 1143 1212 q 1225 993 1225 1061 q 1221 951 1225 972 q 1127 795 1194 826 q 1077 785 1104 785 q 952 826 1023 785 q 895 848 916 848 q 844 812 875 848 q 811 749 812 776 l 811 748 q 885 686 811 721 l 1057 597 l 969 190 q 895 47 949 95 q 755 0 842 0 l 306 0 q 233 25 254 0 q 220 71 220 42 q 223 102 220 85 l 378 838 q 381 867 381 854 q 375 897 381 885 z "},"ឌ":{"ha":1092,"x_min":172,"x_max":1027,"o":"m 852 632 q 920 684 914 656 q 924 714 924 699 q 922 735 924 725 q 893 800 918 758 q 841 862 868 842 q 789 882 814 882 l 687 758 q 621 720 653 720 q 551 768 589 720 l 484 852 q 389 916 428 916 q 322 857 353 897 q 281 765 292 816 q 275 713 275 739 q 280 669 275 690 q 307 616 290 624 q 319 613 312 613 q 363 629 336 613 q 407 645 388 645 q 445 621 431 645 q 454 592 454 606 q 422 546 454 566 q 316 511 365 511 q 266 522 290 511 q 183 635 199 552 q 174 720 174 680 q 182 790 174 756 q 244 924 196 860 q 370 1018 293 987 l 388 1018 q 554 927 475 1018 l 622 844 l 682 913 q 794 983 741 983 q 897 947 848 983 q 981 853 945 911 q 1023 747 1015 795 q 1027 713 1027 730 q 1023 677 1027 695 q 943 561 1002 588 l 659 431 q 328 246 376 300 q 276 161 279 191 l 276 157 q 305 116 276 130 q 394 102 336 102 q 508 133 465 102 l 821 374 q 875 395 846 395 q 909 389 891 395 q 942 323 942 376 q 935 263 942 298 l 900 103 q 801 -117 865 -56 q 732 -155 761 -155 q 699 -140 713 -155 q 684 -108 684 -125 q 718 -50 684 -81 q 802 127 776 2 l 828 253 l 582 63 q 391 0 500 0 q 235 36 307 0 q 172 142 172 69 q 173 159 172 150 q 243 312 181 244 q 579 506 306 380 l 852 632 z "},"ឍ":{"ha":1775,"x_min":149,"x_max":1794,"o":"m 282 302 l 256 180 q 252 143 252 158 q 255 121 252 130 q 283 102 261 102 q 346 144 307 102 q 393 226 385 186 q 395 235 395 231 q 382 260 395 249 q 334 286 368 275 l 282 302 m 862 220 q 845 170 845 203 q 879 102 845 102 q 926 170 912 102 l 941 237 l 913 237 q 862 220 879 237 m 283 0 q 167 51 198 0 q 149 129 149 81 q 157 203 149 161 l 277 763 q 345 924 296 860 q 470 1018 393 987 l 488 1018 q 654 927 575 1018 l 722 844 l 782 913 q 895 983 842 983 q 997 947 948 983 q 1081 853 1046 911 q 1124 747 1116 795 q 1131 672 1131 698 q 1122 600 1131 646 l 1067 339 q 1187 287 1099 339 q 1336 168 1274 235 q 1413 102 1398 102 q 1466 127 1438 102 q 1504 207 1494 154 l 1575 542 l 1472 595 q 1343 734 1343 659 l 1343 737 q 1404 882 1345 814 q 1520 949 1463 949 q 1661 900 1578 949 l 1754 844 q 1794 791 1794 819 q 1786 764 1794 778 q 1748 739 1772 739 q 1710 751 1731 739 l 1617 808 q 1529 848 1550 848 q 1478 812 1509 848 q 1445 749 1447 776 l 1445 748 q 1519 686 1445 721 l 1691 597 l 1605 192 q 1533 47 1585 94 q 1413 0 1479 0 q 1284 75 1352 0 q 1146 194 1217 151 q 1063 237 1076 237 l 1045 237 l 1029 155 q 975 39 1012 77 q 879 0 937 0 q 777 42 811 0 q 743 170 743 85 q 786 297 743 254 q 913 339 828 339 l 962 339 l 1022 618 q 1029 672 1029 654 q 1024 724 1029 689 q 994 800 1019 758 q 941 862 968 842 q 890 882 915 882 l 787 758 q 722 720 753 720 q 652 768 690 720 l 584 852 q 489 916 528 916 q 422 857 453 897 q 378 749 392 816 l 304 401 l 372 381 q 477 316 447 359 q 498 246 498 286 q 494 208 498 228 q 416 69 479 138 q 283 0 351 0 z "},"ណ":{"ha":2318,"x_min":149,"x_max":2255,"o":"m 282 302 l 256 180 q 252 143 252 158 q 255 121 252 130 q 283 102 261 102 q 346 144 307 102 q 393 226 385 186 q 395 235 395 231 q 382 260 395 249 q 334 286 368 275 l 282 302 m 283 0 q 167 51 198 0 q 149 129 149 81 q 157 203 149 161 l 277 763 q 345 924 296 860 q 473 1006 393 987 q 561 1017 518 1017 q 626 1010 594 1017 q 768 968 698 996 q 907 882 838 940 q 994 760 978 825 q 1002 692 1002 728 q 992 609 1002 654 l 915 248 q 994 271 938 271 q 1212 178 1064 271 l 1337 102 q 1384 127 1356 102 q 1423 205 1412 154 l 1530 695 q 1598 856 1550 792 q 1727 939 1647 920 q 1814 949 1771 949 q 1879 943 1847 949 q 2021 900 1951 928 q 2161 814 2091 872 q 2247 692 2231 758 q 2255 625 2255 661 q 2245 541 2255 586 l 2139 62 q 2075 0 2124 0 q 2035 39 2035 0 q 2038 62 2035 50 l 2145 562 q 2153 626 2153 597 q 2148 663 2153 646 q 2088 743 2139 702 q 1981 806 2037 783 q 1868 841 1925 829 q 1813 846 1840 846 q 1758 840 1786 846 q 1676 789 1706 829 q 1631 681 1645 748 l 1525 190 q 1451 47 1504 95 q 1333 0 1397 0 q 1173 85 1310 0 q 994 170 1035 170 q 915 102 952 170 q 807 0 857 0 q 768 39 768 0 q 770 62 768 50 l 784 125 l 892 630 q 899 694 899 665 q 895 731 899 714 q 835 810 886 770 q 728 874 784 851 q 614 909 671 897 q 560 914 587 914 q 505 908 532 914 q 422 857 453 897 q 378 749 392 816 l 304 401 l 372 381 q 477 316 447 359 q 498 246 498 286 q 494 208 498 228 q 416 69 479 138 q 283 0 351 0 z "},"ត":{"ha":1185,"x_min":135,"x_max":1200,"o":"m 262 663 q 254 663 258 663 q 186 692 229 663 q 147 739 160 710 q 135 806 135 767 q 153 882 135 846 q 209 951 172 918 q 297 1001 245 985 q 409 1017 349 1017 q 523 991 469 1017 q 633 911 577 964 q 718 848 701 848 q 810 899 736 848 q 886 937 846 924 q 969 949 926 949 q 1055 930 1013 949 q 1139 870 1097 909 q 1200 757 1200 814 q 1178 697 1200 703 q 1171 696 1175 696 q 1137 720 1152 696 q 1066 798 1120 747 q 1015 836 1040 823 q 965 848 989 848 q 880 823 917 848 q 783 765 825 785 q 714 746 742 746 q 651 768 687 746 q 570 831 614 789 q 485 895 524 873 q 412 916 446 916 q 281 878 326 916 q 237 810 237 840 q 273 757 237 782 q 301 715 301 737 q 298 701 301 708 q 262 663 288 669 m 283 302 l 257 180 q 252 143 252 158 q 256 121 252 130 q 283 102 262 102 q 347 144 307 102 q 394 226 386 186 q 395 235 395 231 q 383 260 395 249 q 334 286 368 275 l 283 302 m 221 496 q 352 690 253 635 q 548 746 451 746 q 707 710 624 746 q 891 604 789 675 q 1036 456 993 532 q 1065 346 1065 402 q 1061 300 1065 323 l 1011 68 q 987 17 1004 34 q 945 0 971 0 q 909 16 918 0 q 904 41 904 26 q 907 68 904 53 l 957 306 q 960 334 960 320 q 935 417 960 376 q 819 530 900 473 q 673 615 737 587 q 547 644 608 644 q 407 606 473 644 q 321 477 341 568 l 304 401 l 373 381 q 477 316 448 359 q 498 246 498 286 q 494 208 498 228 q 416 69 480 138 q 283 0 352 0 q 168 51 199 0 q 149 129 149 81 q 158 203 149 161 l 221 496 z "},"ថ":{"ha":1186,"x_min":135,"x_max":1168,"o":"m 281 623 q 180 695 200 680 q 147 739 160 710 q 135 806 135 767 q 153 882 135 846 q 209 951 172 918 q 297 1001 245 985 q 409 1017 349 1017 q 523 991 469 1017 q 671 906 577 964 q 861 848 764 848 q 1004 892 950 848 q 1063 979 1059 937 q 1067 1011 1067 996 q 1042 1081 1067 1049 q 918 1148 1008 1126 q 866 1198 866 1164 q 869 1218 866 1208 q 921 1253 882 1253 q 954 1248 936 1253 q 1134 1131 1085 1212 q 1168 1011 1168 1074 q 1162 960 1168 986 q 1074 810 1156 875 q 861 746 991 746 q 634 810 743 746 q 485 895 524 873 q 412 916 446 916 q 281 878 326 916 q 237 810 237 840 q 273 757 237 782 l 397 679 l 275 102 l 783 102 q 857 127 829 102 q 897 205 885 154 l 959 491 q 962 519 962 507 q 956 549 962 538 q 917 568 945 568 q 867 541 888 568 q 836 457 847 513 q 831 425 831 437 q 848 399 831 399 l 849 399 q 884 349 884 399 q 849 297 884 298 q 745 341 774 297 q 728 412 728 368 q 735 475 728 440 q 802 621 756 572 q 917 670 847 670 q 1035 618 989 670 q 1067 526 1067 583 q 1061 473 1067 502 l 998 190 q 924 47 977 95 q 783 0 870 0 l 254 0 q 181 25 202 0 q 168 69 168 42 q 172 102 168 84 l 281 623 z "},"ទ":{"ha":1028,"x_min":172,"x_max":962,"o":"m 746 441 q 802 475 795 441 q 803 486 803 481 q 777 509 803 509 q 730 446 744 509 l 730 441 l 746 441 m 708 340 l 681 210 q 601 53 659 105 q 451 0 544 0 q 296 62 338 0 q 269 164 269 101 q 279 250 269 203 q 338 326 295 326 q 347 325 342 326 q 385 271 385 318 q 380 235 385 256 q 374 182 374 205 q 384 135 374 153 q 452 102 402 102 q 535 133 503 102 q 581 229 567 165 l 606 346 q 517 361 559 351 q 314 467 420 382 q 181 638 208 551 q 172 709 172 669 q 184 813 172 755 q 302 962 204 906 q 562 1017 401 1017 q 724 998 627 1017 q 922 883 866 966 q 962 758 962 821 q 958 717 962 738 q 897 668 947 669 q 854 706 854 668 q 855 723 854 714 q 858 746 858 734 q 830 825 858 785 q 701 901 793 878 q 566 916 612 916 q 359 878 424 916 q 281 777 294 840 q 273 709 273 739 q 277 669 273 686 q 378 546 294 614 q 547 459 463 478 q 627 446 584 451 l 631 467 q 683 574 646 538 q 778 610 720 610 q 888 572 857 610 q 908 505 908 547 q 903 458 908 484 q 850 369 890 398 q 739 339 808 339 q 708 340 724 339 z "},"ធ":{"ha":1187,"x_min":135,"x_max":1200,"o":"m 304 248 q 384 271 328 271 q 676 178 528 271 l 802 102 q 874 126 847 102 q 911 199 901 151 l 972 491 q 975 519 975 507 q 969 549 975 538 q 930 568 959 568 q 881 541 901 568 q 849 457 861 513 q 845 425 845 437 q 862 399 845 399 l 863 399 q 897 349 897 399 q 863 297 897 298 q 759 341 787 297 q 741 412 741 368 q 749 475 741 440 q 815 621 770 572 q 930 670 861 670 q 1048 618 1003 670 q 1080 526 1080 583 q 1074 473 1080 502 l 1011 183 q 939 46 993 92 q 798 0 886 0 q 637 85 774 0 q 383 170 499 170 q 304 102 342 170 q 197 0 246 0 q 157 39 157 0 q 160 62 157 50 l 174 125 l 281 623 l 241 652 q 180 695 200 680 q 147 739 160 710 q 135 806 135 767 q 153 882 135 846 q 209 951 172 918 q 297 1001 245 985 q 409 1017 349 1017 q 523 991 469 1017 q 633 911 577 964 q 718 848 701 848 q 810 899 736 848 q 886 937 846 924 q 969 949 926 949 q 1055 930 1013 949 q 1139 870 1097 909 q 1200 757 1200 814 q 1178 697 1200 703 q 1171 696 1175 696 q 1137 720 1152 696 q 1066 798 1120 747 q 1015 836 1040 823 q 965 848 989 848 q 880 823 917 848 q 783 765 825 785 q 714 746 742 746 q 651 768 687 746 q 570 831 614 789 q 485 895 524 873 q 412 916 446 916 q 281 878 326 916 q 237 810 237 840 q 273 757 237 782 l 397 679 l 304 248 z "},"ន":{"ha":1187,"x_min":102,"x_max":1121,"o":"m 220 220 q 203 170 203 203 q 237 102 203 102 q 285 170 271 102 l 300 237 l 272 237 q 220 220 237 237 m 352 492 q 402 537 366 537 q 416 536 409 537 q 454 491 454 528 q 452 469 454 481 l 425 339 q 564 287 476 339 q 713 168 652 235 q 804 102 775 102 q 864 127 836 102 q 903 205 892 154 l 924 303 q 926 315 926 309 q 862 402 926 359 q 636 496 790 450 q 433 578 509 535 q 337 667 359 621 q 306 784 306 735 q 309 813 306 800 q 427 962 329 906 q 686 1017 526 1017 q 883 998 785 1017 q 1080 883 1025 966 q 1121 758 1121 821 q 1117 717 1121 738 q 1055 668 1106 669 q 1013 706 1013 668 q 1014 723 1013 714 q 1017 746 1017 734 q 989 825 1017 785 q 860 901 951 878 q 690 916 771 916 q 484 878 549 916 q 410 798 419 840 q 409 787 409 793 q 431 707 409 756 q 503 654 443 682 q 669 593 562 625 q 956 456 867 534 q 1027 317 1027 393 q 1023 281 1027 300 l 1003 190 q 930 47 983 94 q 804 0 877 0 q 661 75 729 0 q 524 194 594 151 q 422 237 454 237 l 404 237 l 388 155 q 333 39 370 77 q 237 0 295 0 q 136 42 170 0 q 102 170 102 85 q 144 297 102 254 q 272 339 186 339 l 321 339 l 352 492 z "},"ប":{"ha":1222,"x_min":139,"x_max":1252,"o":"m 338 623 l 269 663 q 139 802 139 726 l 139 805 q 201 949 141 882 q 317 1017 260 1017 q 444 981 374 1017 q 591 918 524 943 q 626 870 626 901 q 623 852 626 862 q 574 821 606 821 q 547 825 562 821 q 434 876 481 850 q 326 916 346 916 q 274 880 305 916 q 241 817 243 844 l 241 816 q 315 754 241 789 l 454 679 l 332 102 l 847 102 q 921 127 892 102 q 960 205 949 154 l 1034 542 l 930 595 q 801 734 801 659 l 801 737 q 863 882 803 814 q 979 949 922 949 q 1119 900 1036 949 l 1212 844 q 1252 791 1252 819 q 1244 764 1252 778 q 1206 739 1230 739 q 1168 751 1190 739 l 1076 808 q 987 848 1008 848 q 936 812 967 848 q 903 749 905 776 l 903 748 q 977 686 903 721 l 1149 597 l 1061 190 q 987 47 1041 95 q 847 0 934 0 l 311 0 q 237 25 258 0 q 224 69 224 42 q 228 102 224 84 l 338 623 z "},"ផ":{"ha":1186,"x_min":135,"x_max":1168,"o":"m 304 248 q 384 271 328 271 q 663 178 515 271 l 788 102 q 861 126 833 102 q 897 199 888 151 l 959 491 q 962 519 962 507 q 956 549 962 538 q 917 568 945 568 q 867 541 888 568 q 836 457 847 513 q 831 425 831 437 q 848 399 831 399 l 849 399 q 884 349 884 399 q 849 297 884 298 q 745 341 774 297 q 728 412 728 368 q 735 475 728 440 q 802 621 756 572 q 917 670 847 670 q 1035 618 989 670 q 1067 526 1067 583 q 1061 473 1067 502 l 998 183 q 926 46 979 92 q 784 0 872 0 q 623 85 761 0 q 383 170 486 170 q 304 102 342 170 q 197 0 246 0 q 157 39 157 0 q 160 62 157 50 l 174 125 l 281 623 q 180 695 200 680 q 147 739 160 710 q 135 806 135 767 q 153 882 135 846 q 209 951 172 918 q 297 1001 245 985 q 409 1017 349 1017 q 523 991 469 1017 q 671 906 577 964 q 861 848 764 848 q 1004 892 950 848 q 1063 979 1059 937 q 1067 1011 1067 996 q 1042 1081 1067 1049 q 918 1148 1008 1126 q 866 1198 866 1164 q 869 1218 866 1208 q 921 1253 882 1253 q 954 1248 936 1253 q 1134 1131 1085 1212 q 1168 1011 1168 1074 q 1162 960 1168 986 q 1074 810 1156 875 q 861 746 991 746 q 634 810 743 746 q 485 895 524 873 q 412 916 446 916 q 281 878 326 916 q 237 810 237 840 q 273 757 237 782 l 397 679 l 304 248 z "},"ព":{"ha":1199,"x_min":149,"x_max":1131,"o":"m 282 302 l 256 180 q 252 143 252 158 q 255 121 252 130 q 283 102 261 102 q 346 144 307 102 q 393 226 385 186 q 395 235 395 231 q 382 260 395 249 q 334 286 368 275 l 282 302 m 283 0 q 167 51 198 0 q 149 129 149 81 q 157 203 149 161 l 277 763 q 345 924 296 860 q 470 1018 393 987 l 488 1018 q 654 927 575 1018 l 722 844 l 782 913 q 895 983 842 983 q 997 947 948 983 q 1081 853 1046 911 q 1124 747 1116 795 q 1131 672 1131 698 q 1122 600 1131 646 l 1008 63 q 985 16 1001 31 q 943 0 968 0 q 907 20 916 0 q 903 45 903 31 q 907 81 903 61 l 1022 618 q 1029 672 1029 654 q 1024 724 1029 689 q 994 800 1019 758 q 941 862 968 842 q 890 882 915 882 l 787 758 q 722 720 753 720 q 652 768 690 720 l 584 852 q 489 916 528 916 q 422 857 453 897 q 378 749 392 816 l 304 401 l 372 381 q 477 316 447 359 q 498 246 498 286 q 494 208 498 228 q 416 69 479 138 q 283 0 351 0 z "},"ភ":{"ha":1187,"x_min":68,"x_max":1214,"o":"m 275 663 q 267 663 272 663 q 199 692 243 663 q 161 739 174 710 q 149 806 149 767 q 167 882 149 846 q 222 951 185 918 q 311 1001 259 985 q 422 1017 363 1017 q 536 991 482 1017 q 647 911 591 964 q 732 848 714 848 q 823 899 749 848 q 900 937 860 924 q 983 949 940 949 q 1068 930 1026 949 q 1152 870 1111 909 q 1214 757 1214 814 q 1192 697 1214 703 q 1185 696 1188 696 q 1151 720 1166 696 q 1080 798 1133 747 q 1028 836 1053 823 q 979 848 1002 848 q 893 823 930 848 q 797 765 838 785 q 728 746 755 746 q 665 768 701 746 q 583 831 628 789 q 498 895 538 873 q 425 916 459 916 q 295 878 339 916 q 251 810 251 840 q 287 757 251 782 q 315 715 315 737 q 312 701 315 708 q 275 663 301 669 m 467 508 l 391 152 q 337 38 375 76 q 238 0 298 0 q 119 35 170 0 q 68 169 68 71 q 104 347 68 288 q 215 407 142 407 q 271 356 271 407 q 216 305 271 305 q 181 271 193 305 q 170 170 170 238 q 191 113 170 123 q 238 102 212 102 q 291 170 277 102 l 357 489 q 609 712 406 712 q 932 604 760 712 q 1069 468 1034 532 q 1085 385 1085 433 q 1074 300 1085 347 l 1025 68 q 1001 17 1018 34 q 958 0 985 0 q 923 16 932 0 q 918 41 918 26 q 921 68 918 53 l 970 306 q 981 380 981 351 q 975 417 981 403 q 859 530 941 473 q 608 610 724 610 q 467 508 490 610 z "},"ម":{"ha":1222,"x_min":139,"x_max":1252,"o":"m 990 341 l 560 390 q 511 408 526 393 q 498 440 498 420 q 498 448 498 444 q 519 484 501 473 q 556 492 534 492 q 571 491 563 492 l 1012 441 l 1034 542 l 930 595 q 801 734 801 659 l 801 737 q 863 882 803 814 q 979 949 922 949 q 1119 900 1036 949 l 1212 844 q 1252 791 1252 819 q 1244 764 1252 778 q 1206 739 1230 739 q 1168 751 1190 739 l 1076 808 q 987 848 1008 848 q 936 812 967 848 q 903 749 905 776 l 903 748 q 977 686 903 721 l 1149 597 l 1061 190 q 987 47 1041 95 q 847 0 934 0 l 311 0 q 237 25 258 0 q 224 69 224 42 q 228 102 224 84 l 338 623 l 269 663 q 139 802 139 726 l 139 805 q 201 949 141 882 q 317 1017 260 1017 q 444 981 374 1017 q 591 918 524 943 q 626 870 626 901 q 623 852 626 862 q 574 821 606 821 q 547 825 562 821 q 434 876 481 850 q 326 916 346 916 q 274 880 305 916 q 241 817 243 844 l 241 816 q 315 754 241 789 l 454 679 l 332 102 l 847 102 q 921 127 892 102 q 960 205 949 154 l 990 341 z "},"យ":{"ha":1702,"x_min":141,"x_max":1702,"o":"m 977 243 q 1020 144 998 179 q 1078 102 1047 102 l 1318 102 q 1392 127 1363 102 q 1431 205 1419 154 l 1504 542 l 1401 595 q 1272 734 1272 659 l 1272 737 q 1333 882 1274 814 q 1449 949 1392 949 q 1590 900 1507 949 l 1662 857 q 1702 804 1702 833 q 1695 778 1702 791 q 1656 752 1681 752 q 1619 764 1640 752 l 1546 808 q 1458 848 1478 848 q 1407 812 1438 848 q 1374 749 1375 776 l 1374 748 q 1448 686 1374 721 l 1620 597 l 1532 190 q 1458 47 1512 95 q 1318 0 1404 0 l 1078 0 q 961 62 1010 0 q 935 103 947 80 q 891 47 916 70 q 751 0 838 0 l 227 0 q 155 25 176 0 q 141 71 141 42 q 144 102 141 85 l 308 870 q 381 998 321 965 q 454 1017 416 1017 q 510 1007 481 1017 q 602 922 576 983 q 619 823 619 881 q 615 762 619 795 q 561 640 602 672 q 505 622 537 622 q 448 633 479 622 q 427 665 427 641 q 433 693 427 677 q 470 731 447 731 q 483 728 476 731 q 489 727 486 727 q 515 779 508 727 q 518 824 518 804 q 513 868 518 850 q 475 911 503 901 q 456 915 465 915 q 433 906 442 915 q 408 852 416 892 l 250 102 l 751 102 q 825 127 796 102 q 864 205 852 154 l 944 576 l 861 622 q 732 768 732 692 l 732 771 q 793 916 734 848 q 909 983 852 983 q 1050 934 967 983 l 1122 891 q 1162 838 1162 867 q 1155 812 1162 825 q 1116 786 1141 786 q 1079 798 1100 786 l 1006 842 q 918 882 939 882 q 867 846 898 882 q 834 783 836 810 l 834 782 q 908 713 834 755 l 1060 631 l 977 243 z "},"រ":{"ha":644,"x_min":102,"x_max":650,"o":"m 432 610 l 329 663 q 199 802 199 726 l 199 805 q 261 949 201 882 q 377 1017 320 1017 q 517 968 435 1017 l 610 911 q 650 859 650 887 q 643 832 650 846 q 604 806 629 806 q 567 819 588 806 l 474 876 q 386 916 406 916 q 334 880 366 916 q 302 817 303 844 l 302 816 q 376 754 302 789 l 548 665 l 439 152 q 272 0 406 0 q 153 35 204 0 q 102 169 102 71 q 110 271 102 237 q 152 347 121 322 q 235 373 183 373 q 271 324 271 373 l 271 322 q 237 271 271 271 q 209 246 214 271 q 203 172 203 221 q 225 112 203 123 q 272 102 246 102 q 338 170 324 102 l 432 610 z "},"ល":{"ha":1640,"x_min":149,"x_max":1658,"o":"m 282 302 l 256 180 q 252 143 252 158 q 255 121 252 130 q 283 102 261 102 q 346 144 307 102 q 393 226 385 186 q 395 235 395 231 q 382 260 395 249 q 334 286 368 275 l 282 302 m 283 0 q 167 51 198 0 q 149 129 149 81 q 157 203 149 161 l 277 763 q 345 924 296 860 q 473 1006 393 987 q 561 1017 518 1017 q 626 1010 594 1017 q 768 968 698 996 q 907 882 838 940 q 994 760 978 825 q 1002 692 1002 728 q 992 609 1002 654 l 884 102 l 1202 102 q 1313 149 1261 102 q 1381 267 1366 195 l 1440 542 l 1337 595 q 1207 734 1207 659 l 1207 737 q 1269 882 1209 814 q 1385 949 1328 949 q 1525 900 1442 949 l 1618 844 q 1658 791 1658 819 q 1651 764 1658 778 q 1612 739 1636 739 q 1575 751 1596 739 l 1482 808 q 1394 848 1414 848 q 1342 812 1373 848 q 1310 749 1311 776 l 1310 748 q 1383 686 1310 721 l 1556 597 l 1481 247 q 1380 71 1459 141 q 1199 0 1301 0 l 861 0 q 789 25 810 0 q 776 69 776 42 q 780 102 776 84 l 892 630 q 899 694 899 665 q 895 731 899 714 q 835 810 886 770 q 728 874 784 851 q 614 909 671 897 q 560 914 587 914 q 505 908 532 914 q 422 857 453 897 q 378 749 392 816 l 304 401 l 372 381 q 477 316 447 359 q 498 246 498 286 q 494 208 498 228 q 416 69 479 138 q 283 0 351 0 z "},"វ":{"ha":644,"x_min":102,"x_max":715,"o":"m 432 610 l 329 663 q 199 802 199 726 l 199 805 q 261 949 201 882 q 377 1017 320 1017 q 487 985 435 1017 q 549 964 523 964 q 569 968 559 964 q 612 1038 600 981 q 614 1063 614 1050 q 589 1144 614 1106 q 467 1216 557 1194 q 415 1266 415 1232 q 418 1286 415 1276 q 470 1320 431 1320 q 503 1316 485 1320 q 680 1194 634 1280 q 715 1061 715 1129 q 712 1019 715 1040 q 618 863 685 894 q 568 853 595 853 q 443 894 514 853 q 386 916 406 916 q 334 880 366 916 q 302 817 303 844 l 302 816 q 376 754 302 789 l 548 665 l 439 152 q 272 0 406 0 q 153 35 204 0 q 102 169 102 71 q 110 271 102 237 q 152 347 121 322 q 235 373 183 373 q 271 324 271 373 l 271 322 q 237 271 271 271 q 209 246 214 271 q 203 172 203 221 q 225 112 203 123 q 272 102 246 102 q 338 170 324 102 l 432 610 z "},"ឝ":{"ha":1189,"x_min":137,"x_max":1202,"o":"m 264 663 q 256 663 260 663 q 188 692 231 663 q 149 739 162 710 q 137 806 137 767 q 155 882 137 846 q 211 951 174 918 q 299 1001 248 985 q 411 1017 351 1017 q 525 991 471 1017 q 635 911 579 964 q 720 848 703 848 q 812 899 738 848 q 888 937 848 924 q 971 949 928 949 q 1057 930 1015 949 q 1141 870 1099 909 q 1202 757 1202 814 q 1180 697 1202 703 q 1173 696 1177 696 q 1139 720 1154 696 q 1068 798 1122 747 q 1017 836 1042 823 q 967 848 991 848 q 882 823 919 848 q 785 765 827 785 q 716 746 744 746 q 653 768 689 746 q 572 831 616 789 q 487 895 526 873 q 414 916 448 916 q 283 878 328 916 q 239 810 239 840 q 275 757 239 782 q 303 715 303 737 q 300 701 303 708 q 264 663 290 669 m 960 312 q 962 334 962 323 q 937 417 962 376 q 821 530 902 473 q 675 615 739 587 q 549 644 610 644 q 409 606 475 644 q 323 477 343 568 l 263 196 q 383 300 317 257 q 511 339 447 339 q 642 299 574 339 q 673 256 673 280 q 664 227 673 242 q 625 201 648 201 q 587 214 608 201 q 512 237 548 237 q 424 205 476 237 q 335 124 378 171 q 201 0 232 0 q 153 41 172 0 q 144 97 144 63 q 151 165 144 127 l 223 496 q 354 690 255 635 q 550 746 453 746 q 709 710 626 746 q 893 604 791 675 q 1038 456 995 532 q 1067 346 1067 402 q 1063 300 1067 323 l 1061 289 l 1129 273 q 1185 222 1185 259 q 1183 208 1185 215 q 1134 170 1175 170 q 1105 174 1121 170 l 1039 189 l 1013 68 q 989 17 1006 34 q 947 0 973 0 q 911 16 920 0 q 906 41 906 26 q 909 68 906 53 l 939 213 l 842 236 q 785 287 785 250 q 787 300 785 293 q 837 338 796 338 q 865 334 850 338 l 960 312 z "},"ឞ":{"ha":1222,"x_min":139,"x_max":1252,"o":"m 1090 321 l 1061 190 q 987 47 1041 95 q 847 0 934 0 l 311 0 q 237 25 258 0 q 224 69 224 42 q 228 102 224 84 l 338 623 l 269 663 q 139 802 139 726 l 139 805 q 201 949 141 882 q 317 1017 260 1017 q 444 981 374 1017 q 591 918 524 943 q 626 870 626 901 q 623 852 626 862 q 574 821 606 821 q 547 825 562 821 q 434 876 481 850 q 326 916 346 916 q 274 880 305 916 q 241 817 243 844 l 241 816 q 315 754 241 789 l 454 679 l 332 102 l 847 102 q 921 127 892 102 q 960 205 949 154 l 991 345 l 894 367 q 838 418 838 380 q 840 432 838 425 q 889 469 848 469 q 917 466 901 469 l 1012 444 l 1034 542 l 930 595 q 801 734 801 659 l 801 737 q 863 882 803 814 q 979 949 922 949 q 1119 900 1036 949 l 1212 844 q 1252 791 1252 819 q 1244 764 1252 778 q 1206 739 1230 739 q 1168 751 1190 739 l 1076 808 q 987 848 1008 848 q 936 812 967 848 q 903 749 905 776 l 903 748 q 977 686 903 721 l 1149 597 l 1111 420 l 1181 404 q 1238 353 1238 391 q 1236 339 1238 347 q 1186 301 1227 301 q 1158 305 1173 301 l 1090 321 z "},"ស":{"ha":1640,"x_min":149,"x_max":1658,"o":"m 282 302 l 256 180 q 252 143 252 158 q 255 121 252 130 q 283 102 261 102 q 346 144 307 102 q 393 226 385 186 q 395 235 395 231 q 382 260 395 249 q 334 286 368 275 l 282 302 m 329 711 q 250 844 250 762 q 320 973 250 929 q 449 1017 390 1017 q 568 997 507 1017 l 724 944 q 772 914 759 932 q 779 892 779 904 q 775 873 779 883 q 745 843 766 849 q 729 841 738 841 q 690 849 712 841 l 538 900 q 455 916 491 916 q 385 894 419 916 q 351 845 351 872 q 387 795 351 817 l 445 760 q 509 766 477 766 q 573 760 541 766 q 715 717 645 745 q 854 631 785 689 q 941 509 925 574 q 949 441 949 477 q 939 358 949 403 l 884 102 l 1202 102 q 1313 149 1261 102 q 1381 267 1366 195 l 1440 542 l 1337 595 q 1207 734 1207 659 l 1207 737 q 1269 882 1209 814 q 1385 949 1328 949 q 1525 900 1442 949 l 1618 844 q 1658 791 1658 819 q 1651 764 1658 778 q 1612 739 1636 739 q 1575 751 1596 739 l 1482 808 q 1394 848 1414 848 q 1342 812 1373 848 q 1310 749 1311 776 l 1310 748 q 1383 686 1310 721 l 1556 597 l 1481 247 q 1380 71 1459 141 q 1199 0 1301 0 l 861 0 q 789 25 810 0 q 776 69 776 42 q 780 102 776 84 l 839 379 q 846 443 846 414 q 842 480 846 463 q 782 559 833 519 q 675 623 731 600 q 562 658 618 646 q 507 663 534 663 q 452 657 479 663 q 370 606 400 646 q 325 498 339 565 l 304 401 l 372 381 q 477 316 447 359 q 498 246 498 286 q 494 208 498 228 q 416 69 479 138 q 283 0 351 0 q 167 51 198 0 q 149 129 149 81 q 157 203 149 161 l 224 512 q 292 673 243 609 q 329 711 309 694 z "},"ហ":{"ha":1866,"x_min":139,"x_max":1792,"o":"m 338 623 l 269 663 q 139 802 139 726 l 139 805 q 201 949 141 882 q 317 1017 260 1017 q 444 981 374 1017 q 591 918 524 943 q 626 870 626 901 q 623 852 626 862 q 574 821 606 821 q 547 825 562 821 q 434 876 481 850 q 326 916 346 916 q 274 880 305 916 q 241 817 243 844 l 241 816 q 315 754 241 789 l 454 679 l 332 102 l 847 102 q 921 127 892 102 q 960 205 949 154 l 1067 695 q 1135 856 1086 792 q 1263 939 1183 920 q 1351 949 1308 949 q 1416 943 1384 949 q 1558 900 1488 928 q 1697 814 1628 872 q 1784 692 1768 758 q 1792 625 1792 661 q 1782 541 1792 586 l 1676 62 q 1611 0 1661 0 q 1572 39 1572 0 q 1575 62 1572 50 l 1682 562 q 1689 626 1689 597 q 1685 663 1689 646 q 1625 743 1676 702 q 1518 806 1574 783 q 1404 841 1461 829 q 1350 846 1377 846 q 1295 840 1322 846 q 1213 789 1243 829 q 1168 681 1182 748 l 1061 190 q 987 47 1041 95 q 847 0 934 0 l 311 0 q 237 25 258 0 q 224 69 224 42 q 228 102 224 84 l 338 623 z "},"ឡ":{"ha":1537,"x_min":172,"x_max":1550,"o":"m 746 441 q 802 475 795 441 q 803 486 803 481 q 777 509 803 509 q 730 446 744 509 l 730 441 l 746 441 m 708 340 l 681 210 q 601 53 659 105 q 451 0 544 0 q 296 62 338 0 q 269 164 269 101 q 279 250 269 203 q 338 326 295 326 q 347 325 342 326 q 385 271 385 318 q 380 235 385 256 q 374 182 374 205 q 384 135 374 153 q 452 102 402 102 q 535 133 503 102 q 581 229 567 165 l 606 346 q 517 361 559 351 q 314 467 420 382 q 181 638 208 551 q 172 709 172 669 q 184 813 172 755 q 302 962 204 906 q 562 1017 401 1017 q 724 998 627 1017 q 922 883 866 966 q 962 758 962 821 q 958 717 962 738 q 897 668 947 669 q 854 706 854 668 q 855 723 854 714 q 858 746 858 734 q 830 825 858 785 q 701 901 793 878 q 566 916 612 916 q 359 878 424 916 q 281 777 294 840 q 273 709 273 739 q 277 669 273 686 q 378 546 294 614 q 547 459 463 478 q 627 446 584 451 l 631 467 q 683 574 646 538 q 778 610 720 610 q 888 572 857 610 q 908 505 908 547 q 903 458 908 484 q 850 369 890 398 q 739 339 808 339 q 708 340 724 339 m 1331 542 l 1228 595 q 1099 734 1099 659 l 1099 737 q 1160 882 1101 814 q 1276 949 1219 949 q 1417 900 1334 949 l 1510 844 q 1550 791 1550 819 q 1542 764 1550 778 q 1503 739 1528 739 q 1466 751 1487 739 l 1373 808 q 1285 848 1305 848 q 1234 812 1265 848 q 1201 749 1202 776 l 1201 748 q 1275 686 1201 721 l 1447 597 l 1260 -287 q 1186 -429 1240 -382 q 1069 -477 1133 -477 q 908 -392 1046 -477 q 729 -307 770 -307 q 650 -375 688 -307 q 543 -477 592 -477 q 503 -437 503 -477 q 506 -414 503 -427 l 519 -352 l 555 -184 l 555 -182 q 532 -170 555 -170 q 513 -203 513 -170 q 462 -258 513 -258 q 411 -203 411 -258 q 441 -102 411 -136 q 533 -68 472 -68 q 640 -102 612 -68 q 660 -163 660 -125 q 655 -203 660 -181 l 650 -229 q 730 -205 673 -205 q 947 -298 800 -205 l 1073 -375 q 1120 -349 1091 -375 q 1159 -271 1147 -323 l 1331 542 z "},"អ":{"ha":1322,"x_min":102,"x_max":1348,"o":"m 432 610 l 329 663 q 199 802 199 726 l 199 805 q 261 949 201 882 q 377 1017 320 1017 q 517 968 435 1017 l 610 911 q 650 859 650 887 q 643 832 650 846 q 604 806 629 806 q 567 819 588 806 l 474 876 q 386 916 406 916 q 334 880 366 916 q 302 817 303 844 l 302 816 q 376 754 302 789 l 548 665 l 439 152 q 272 0 406 0 q 153 35 204 0 q 102 169 102 71 q 110 271 102 237 q 152 347 121 322 q 235 373 183 373 q 271 324 271 373 l 271 322 q 237 271 271 271 q 209 246 214 271 q 203 172 203 221 q 225 112 203 123 q 272 102 246 102 q 338 170 324 102 l 432 610 m 1121 499 l 1130 542 l 1027 595 q 897 734 897 659 l 897 737 q 959 882 899 814 q 1075 949 1018 949 q 1215 900 1133 949 l 1308 844 q 1348 791 1348 819 q 1341 764 1348 778 q 1302 739 1326 739 q 1265 751 1286 739 l 1172 808 q 1084 848 1104 848 q 1032 812 1063 848 q 1000 749 1001 776 l 1000 748 q 1074 686 1000 721 l 1246 597 l 1151 152 q 984 0 1118 0 q 865 35 916 0 q 814 149 814 71 q 822 237 814 203 q 864 313 833 288 q 947 339 895 339 q 983 290 983 339 l 983 288 q 949 237 983 237 q 921 212 926 237 q 916 151 916 187 q 937 112 916 123 q 984 102 958 102 q 1050 170 1036 102 l 1099 399 l 640 451 q 591 469 606 454 q 578 501 578 481 q 578 509 578 505 q 600 545 581 534 q 636 553 614 553 q 651 552 643 553 l 1121 499 z "},"ឣ":{"ha":1322,"x_min":102,"x_max":1348,"o":"m 432 610 l 329 663 q 199 802 199 726 l 199 805 q 261 949 201 882 q 377 1017 320 1017 q 517 968 435 1017 l 610 911 q 650 859 650 887 q 643 832 650 846 q 604 806 629 806 q 567 819 588 806 l 474 876 q 386 916 406 916 q 334 880 366 916 q 302 817 303 844 l 302 816 q 376 754 302 789 l 548 665 l 439 152 q 272 0 406 0 q 153 35 204 0 q 102 169 102 71 q 110 271 102 237 q 152 347 121 322 q 235 373 183 373 q 271 324 271 373 l 271 322 q 237 271 271 271 q 209 246 214 271 q 203 172 203 221 q 225 112 203 123 q 272 102 246 102 q 338 170 324 102 l 432 610 m 1121 499 l 1130 542 l 1027 595 q 897 734 897 659 l 897 737 q 959 882 899 814 q 1075 949 1018 949 q 1215 900 1133 949 l 1308 844 q 1348 791 1348 819 q 1341 764 1348 778 q 1302 739 1326 739 q 1265 751 1286 739 l 1172 808 q 1084 848 1104 848 q 1032 812 1063 848 q 1000 749 1001 776 l 1000 748 q 1074 686 1000 721 l 1246 597 l 1151 152 q 984 0 1118 0 q 865 35 916 0 q 814 149 814 71 q 822 237 814 203 q 864 313 833 288 q 947 339 895 339 q 983 290 983 339 l 983 288 q 949 237 983 237 q 921 212 926 237 q 916 151 916 187 q 937 112 916 123 q 984 102 958 102 q 1050 170 1036 102 l 1099 399 l 640 451 q 591 469 606 454 q 578 501 578 481 q 578 509 578 505 q 600 545 581 534 q 636 553 614 553 q 651 552 643 553 l 1121 499 z "},"ឤ":{"ha":1899,"x_min":102,"x_max":1834,"o":"m 432 610 l 329 663 q 199 802 199 726 l 199 805 q 261 949 201 882 q 377 1017 320 1017 q 517 968 435 1017 l 610 911 q 650 859 650 887 q 643 832 650 846 q 604 806 629 806 q 567 819 588 806 l 474 876 q 386 916 406 916 q 334 880 366 916 q 302 817 303 844 l 302 816 q 376 754 302 789 l 548 665 l 439 152 q 272 0 406 0 q 153 35 204 0 q 102 169 102 71 q 110 271 102 237 q 152 347 121 322 q 235 373 183 373 q 271 324 271 373 l 271 322 q 237 271 271 271 q 209 246 214 271 q 203 172 203 221 q 225 112 203 123 q 272 102 246 102 q 338 170 324 102 l 432 610 m 1120 500 l 1137 576 l 1034 629 q 904 768 904 692 l 904 771 q 966 916 906 848 q 1082 983 1025 983 q 1225 935 1148 983 l 1356 851 l 1431 913 q 1518 950 1476 950 q 1594 930 1560 950 l 1680 882 q 1796 794 1757 838 q 1834 704 1834 749 q 1824 603 1834 654 l 1708 59 q 1685 15 1702 30 q 1643 0 1669 0 q 1608 20 1617 0 q 1603 45 1603 30 q 1607 78 1603 60 l 1724 625 q 1732 700 1732 663 q 1626 795 1732 736 l 1520 855 l 1421 773 q 1359 746 1388 746 q 1293 770 1331 746 l 1179 843 q 1090 882 1117 882 q 1039 846 1070 882 q 1006 783 1008 810 l 1006 782 q 1080 720 1006 755 l 1253 631 l 1151 152 q 984 0 1118 0 q 865 35 916 0 q 814 149 814 71 q 822 237 814 203 q 864 313 833 288 q 947 339 895 339 q 983 290 983 339 l 983 288 q 949 237 983 237 q 921 212 926 237 q 916 151 916 187 q 937 112 916 123 q 984 102 958 102 q 1050 170 1036 102 l 1099 399 l 640 451 q 591 469 606 454 q 578 501 578 481 q 578 509 578 505 q 600 545 581 534 q 636 553 614 553 q 651 552 643 553 l 1120 500 z "},"ឥ":{"ha":1185,"x_min":135,"x_max":1168,"o":"m 283 302 l 257 180 q 252 143 252 158 q 256 121 252 130 q 283 102 262 102 q 347 144 307 102 q 394 226 386 186 q 395 235 395 231 q 383 260 395 249 q 334 286 368 275 l 283 302 m 366 698 q 548 746 458 746 q 707 710 624 746 q 891 604 789 675 q 1036 456 993 532 q 1065 346 1065 402 q 1061 300 1065 323 l 1011 68 q 987 17 1004 34 q 945 0 971 0 q 909 16 918 0 q 904 41 904 26 q 907 68 904 53 l 957 306 q 960 334 960 320 q 935 417 960 376 q 819 530 900 473 q 673 615 737 587 q 547 644 608 644 q 407 606 473 644 q 321 477 341 568 l 304 401 l 373 381 q 477 316 448 359 q 498 246 498 286 q 494 208 498 228 q 416 69 480 138 q 283 0 352 0 q 168 51 199 0 q 149 129 149 81 q 158 203 149 161 l 221 496 q 277 625 239 574 q 180 695 199 680 q 147 739 160 710 q 135 806 135 767 q 153 882 135 846 q 209 951 172 918 q 297 1001 245 985 q 409 1017 349 1017 q 523 991 469 1017 q 671 906 577 964 q 861 848 764 848 q 1004 892 950 848 q 1063 979 1059 937 q 1067 1011 1067 996 q 1042 1081 1067 1049 q 918 1148 1008 1126 q 866 1198 866 1164 q 869 1218 866 1208 q 921 1253 882 1253 q 954 1248 936 1253 q 1134 1131 1085 1212 q 1168 1011 1168 1074 q 1162 960 1168 986 q 1074 810 1156 875 q 861 746 991 746 q 634 810 743 746 q 485 895 524 873 q 412 916 446 916 q 281 878 326 916 q 237 810 237 840 q 273 757 237 782 l 366 698 z "},"ឦ":{"ha":1637,"x_min":18,"x_max":1718,"o":"m 279 302 l 254 180 q 249 143 249 158 q 252 121 249 130 q 280 102 258 102 q 343 144 304 102 q 391 226 382 186 q 392 235 392 231 q 380 260 392 249 q 331 286 365 275 l 279 302 m 280 0 q 164 51 195 0 q 146 129 146 81 q 155 203 146 161 l 274 763 q 342 924 294 860 q 471 1006 391 987 q 558 1017 515 1017 q 623 1010 591 1017 q 765 968 695 996 q 905 882 835 940 q 991 760 975 825 q 999 692 999 728 q 989 609 999 654 l 873 63 q 849 16 865 31 q 807 0 833 0 q 772 18 781 0 q 766 43 766 28 q 770 71 766 56 l 889 630 q 897 694 897 665 q 892 731 897 714 q 832 810 883 770 q 725 874 781 851 q 612 909 669 897 q 557 914 584 914 q 503 908 530 914 q 420 857 450 897 q 375 749 389 816 l 301 401 l 370 381 q 474 316 444 359 q 495 246 495 286 q 491 208 495 228 q 413 69 477 138 q 280 0 349 0 m 136 -373 l 125 -427 q 122 -448 122 -439 q 145 -475 122 -475 q 220 -458 195 -475 q 245 -408 245 -441 q 221 -382 245 -391 q 150 -373 197 -373 l 136 -373 m 1435 542 l 1332 595 q 1202 734 1202 659 l 1202 737 q 1264 882 1204 814 q 1380 949 1323 949 q 1490 918 1438 949 q 1552 896 1526 896 q 1572 900 1563 896 q 1615 970 1603 913 q 1617 996 1617 983 q 1592 1076 1617 1038 q 1470 1148 1560 1126 q 1418 1198 1418 1164 q 1421 1218 1418 1208 q 1473 1253 1434 1253 q 1506 1248 1488 1253 q 1683 1126 1637 1212 q 1718 993 1718 1061 q 1715 951 1718 972 q 1621 795 1688 826 q 1571 785 1598 785 q 1446 826 1517 785 q 1389 848 1409 848 q 1337 812 1369 848 q 1305 749 1306 776 l 1305 748 q 1379 686 1305 721 l 1551 597 l 1341 -387 q 1267 -529 1320 -481 q 1126 -576 1213 -576 l 737 -576 q 664 -551 685 -576 q 650 -507 650 -534 q 654 -475 650 -492 l 660 -446 q 667 -382 667 -411 q 663 -345 667 -362 q 603 -266 654 -307 q 496 -202 552 -225 q 382 -168 439 -179 q 328 -162 355 -162 q 273 -168 300 -162 q 191 -220 221 -180 q 159 -271 160 -260 q 301 -305 254 -271 q 349 -408 349 -339 q 298 -534 349 -492 q 144 -576 247 -576 q 32 -528 63 -576 q 18 -466 18 -503 q 24 -408 18 -439 l 54 -273 q 113 -153 64 -216 q 241 -70 161 -89 q 329 -59 286 -59 q 394 -66 362 -59 q 536 -109 466 -80 q 675 -194 606 -136 q 762 -317 746 -251 q 770 -384 770 -348 q 760 -467 770 -422 l 759 -475 l 1126 -475 q 1200 -449 1172 -475 q 1240 -371 1228 -422 l 1435 542 z "},"ឧ":{"ha":1024,"x_min":165,"x_max":967,"o":"m 370 629 q 414 645 395 645 q 452 621 437 645 q 460 592 460 606 q 429 546 460 566 q 323 511 372 511 q 273 522 296 511 q 190 635 205 552 q 182 712 182 673 q 194 813 182 761 q 312 962 214 906 q 571 1017 411 1017 q 734 998 636 1017 q 931 883 876 966 q 967 755 967 829 q 957 669 967 715 q 652 431 936 561 q 321 246 369 300 q 269 161 272 191 l 269 157 q 298 116 269 130 q 353 102 330 102 q 447 133 404 102 l 760 374 q 814 395 785 395 q 848 389 830 395 q 881 323 881 376 q 873 263 881 298 l 839 103 q 740 -117 804 -56 q 671 -155 700 -155 q 638 -140 652 -155 q 623 -108 623 -125 q 657 -50 623 -81 q 741 127 715 2 l 767 253 l 521 63 q 350 0 439 0 q 229 36 300 0 q 165 142 165 69 q 166 159 165 150 q 237 312 174 244 q 572 506 299 380 q 860 688 846 632 q 865 737 865 713 q 840 825 865 788 q 711 901 802 878 q 575 916 622 916 q 368 878 433 916 q 290 777 304 840 q 282 711 282 741 q 287 669 282 688 q 314 616 297 624 q 326 613 319 613 q 370 629 342 613 z "},"ឨ":{"ha":1017,"x_min":102,"x_max":1088,"o":"m 363 629 q 407 645 388 645 q 445 621 431 645 q 454 592 454 606 q 422 546 454 566 q 316 511 365 511 q 266 522 290 511 q 183 635 199 552 q 176 712 176 673 q 187 813 176 761 q 305 962 207 906 q 564 1017 404 1017 q 727 998 629 1017 q 924 883 869 966 q 960 755 960 829 q 950 669 960 715 q 646 431 929 561 q 314 246 362 300 q 262 161 265 191 l 262 157 q 292 116 262 130 q 347 102 323 102 q 440 133 397 102 l 753 374 q 807 395 778 395 q 841 389 823 395 q 874 323 874 376 q 867 263 874 298 l 832 103 q 733 -117 798 -56 q 664 -155 693 -155 q 631 -140 646 -155 q 616 -108 616 -125 q 650 -50 616 -81 q 734 127 708 2 l 760 253 l 514 63 q 343 0 432 0 q 222 36 293 0 q 159 142 159 69 q 159 159 159 150 q 230 312 168 244 q 566 506 292 380 q 853 688 839 632 q 859 737 859 713 q 833 825 859 788 q 704 901 795 878 q 568 916 615 916 q 361 878 427 916 q 283 777 297 840 q 275 711 275 741 q 280 669 275 688 q 307 616 290 624 q 319 613 312 613 q 363 629 336 613 m 229 968 q 221 967 226 967 q 153 997 197 967 q 102 1111 102 1032 q 176 1256 102 1190 q 342 1322 250 1322 q 533 1216 421 1322 q 618 1152 600 1152 q 709 1203 635 1152 q 848 1254 783 1254 q 1004 1175 921 1254 l 1046 1135 q 1088 1055 1088 1095 q 1050 1005 1088 1014 q 1035 1003 1042 1003 q 1000 1025 1010 1003 q 932 1102 985 1052 q 844 1152 879 1152 q 779 1127 817 1152 q 614 1050 669 1050 q 469 1135 559 1050 q 345 1220 379 1220 q 249 1182 293 1220 q 205 1115 205 1144 q 241 1061 205 1086 q 269 1019 269 1042 q 266 1005 269 1013 q 229 968 255 974 z "},"ឩ":{"ha":1092,"x_min":165,"x_max":1091,"o":"m 370 629 q 414 645 395 645 q 452 621 437 645 q 460 592 460 606 q 429 546 460 566 q 323 511 372 511 q 273 522 296 511 q 190 635 205 552 q 182 712 182 673 q 194 813 182 761 q 312 962 214 906 q 571 1017 411 1017 q 734 998 636 1017 q 931 883 876 966 q 967 755 967 829 q 957 669 967 715 q 652 431 936 561 q 321 246 369 300 q 269 161 272 191 l 269 157 q 298 116 269 130 q 353 102 330 102 q 447 133 404 102 l 760 374 q 814 395 785 395 q 848 389 830 395 q 881 323 881 376 q 873 263 881 298 l 839 103 q 740 -117 804 -56 q 671 -155 700 -155 q 638 -140 652 -155 q 623 -108 623 -125 q 657 -50 623 -81 q 741 127 715 2 l 767 253 l 521 63 q 350 0 439 0 q 229 36 300 0 q 165 142 165 69 q 166 159 165 150 q 237 312 174 244 q 572 506 299 380 q 860 688 846 632 q 865 737 865 713 q 840 825 865 788 q 711 901 802 878 q 575 916 622 916 q 368 878 433 916 q 290 777 304 840 q 282 711 282 741 q 287 669 282 688 q 314 616 297 624 q 326 613 319 613 q 370 629 342 613 m 994 330 q 1040 392 1006 392 q 1058 389 1048 392 q 1091 323 1091 376 q 1084 263 1091 298 l 1049 103 q 950 -117 1015 -56 q 881 -155 910 -155 q 848 -140 863 -155 q 833 -108 833 -125 q 867 -50 833 -81 q 951 127 925 2 l 977 253 l 994 330 z "},"ឪ":{"ha":1024,"x_min":165,"x_max":1050,"o":"m 428 1004 q 571 1017 492 1017 q 734 998 636 1017 q 931 883 876 966 q 967 755 967 829 q 957 669 967 715 q 652 431 936 561 q 321 246 369 300 q 269 161 272 191 l 269 157 q 298 116 269 130 q 353 102 330 102 q 447 133 404 102 l 760 374 q 814 395 785 395 q 848 389 830 395 q 881 323 881 376 q 873 263 881 298 l 839 103 q 740 -117 804 -56 q 671 -155 700 -155 q 638 -140 652 -155 q 623 -108 623 -125 q 657 -50 623 -81 q 741 127 715 2 l 767 253 l 521 63 q 350 0 439 0 q 229 36 300 0 q 165 142 165 69 q 166 159 165 150 q 237 312 174 244 q 572 506 299 380 q 860 688 846 632 q 865 737 865 713 q 840 825 865 788 q 711 901 802 878 q 575 916 622 916 q 368 878 433 916 q 290 777 304 840 q 282 711 282 741 q 287 669 282 688 q 314 616 297 624 q 326 613 319 613 q 370 629 342 613 q 414 645 395 645 q 452 621 437 645 q 460 592 460 606 q 429 546 460 566 q 323 511 372 511 q 273 522 296 511 q 190 635 205 552 q 182 712 182 673 q 194 813 182 761 q 302 956 213 901 q 235 1005 250 993 q 202 1048 215 1020 q 190 1116 190 1077 q 208 1192 190 1156 q 264 1261 227 1228 q 352 1311 300 1295 q 437 1327 404 1327 q 551 1301 496 1327 q 661 1221 605 1274 q 743 1174 695 1190 q 827 1158 791 1158 q 900 1189 863 1158 q 948 1261 937 1220 q 949 1277 949 1269 q 924 1372 949 1313 q 810 1458 900 1436 q 758 1508 758 1474 q 762 1528 758 1518 q 813 1563 774 1563 q 846 1558 828 1563 q 1015 1422 977 1522 q 1050 1276 1050 1337 q 1048 1242 1050 1258 q 966 1107 1028 1158 q 828 1056 903 1056 q 707 1077 771 1056 q 597 1141 643 1099 q 513 1204 552 1183 q 439 1225 473 1225 q 336 1187 380 1225 q 292 1120 292 1149 q 328 1067 292 1092 l 428 1004 z "},"ឫ":{"ha":1222,"x_min":139,"x_max":1252,"o":"m 338 623 l 269 663 q 139 802 139 726 l 139 805 q 201 949 141 882 q 317 1017 260 1017 q 444 981 374 1017 q 591 918 524 943 q 626 870 626 901 q 623 852 626 862 q 574 821 606 821 q 547 825 562 821 q 434 876 481 850 q 326 916 346 916 q 274 880 305 916 q 241 817 243 844 l 241 816 q 315 754 241 789 l 454 679 l 332 102 l 847 102 q 921 127 892 102 q 960 205 949 154 l 1034 542 l 930 595 q 801 734 801 659 l 801 737 q 863 882 803 814 q 979 949 922 949 q 1119 900 1036 949 l 1212 844 q 1252 791 1252 819 q 1244 764 1252 778 q 1206 739 1230 739 q 1168 751 1190 739 l 1076 808 q 987 848 1008 848 q 936 812 967 848 q 903 749 905 776 l 903 748 q 977 686 903 721 l 1149 597 l 1061 190 q 987 47 1041 95 q 847 0 934 0 l 311 0 q 237 25 258 0 q 224 69 224 42 q 228 102 224 84 l 338 623 m 783 -119 q 834 -68 783 -68 q 957 -101 921 -68 q 983 -165 983 -124 q 979 -199 983 -180 q 890 -304 964 -265 q 682 -357 817 -344 q 457 -400 549 -370 q 316 -479 366 -431 q 254 -513 281 -513 q 222 -499 236 -513 q 208 -467 208 -484 q 239 -410 208 -441 q 412 -309 304 -348 q 671 -254 519 -270 q 873 -203 866 -237 q 874 -195 874 -199 q 832 -170 874 -170 q 783 -119 783 -170 z "},"ឬ":{"ha":1222,"x_min":139,"x_max":1252,"o":"m 338 623 l 269 663 q 139 802 139 726 l 139 805 q 201 949 141 882 q 317 1017 260 1017 q 444 981 374 1017 q 591 918 524 943 q 626 870 626 901 q 623 852 626 862 q 574 821 606 821 q 547 825 562 821 q 434 876 481 850 q 326 916 346 916 q 274 880 305 916 q 241 817 243 844 l 241 816 q 315 754 241 789 l 454 679 l 332 102 l 847 102 q 921 127 892 102 q 960 205 949 154 l 1034 542 l 930 595 q 801 734 801 659 l 801 737 q 863 882 803 814 q 979 949 922 949 q 1119 900 1036 949 l 1212 844 q 1252 791 1252 819 q 1244 764 1252 778 q 1206 739 1230 739 q 1168 751 1190 739 l 1076 808 q 987 848 1008 848 q 936 812 967 848 q 903 749 905 776 l 903 748 q 977 686 903 721 l 1149 597 l 1061 190 q 987 47 1041 95 q 847 0 934 0 l 311 0 q 237 25 258 0 q 224 69 224 42 q 228 102 224 84 l 338 623 m 779 -342 q 682 -357 736 -351 q 457 -400 549 -370 q 316 -479 366 -431 q 254 -513 281 -513 q 222 -499 236 -513 q 208 -467 208 -484 q 239 -410 208 -441 q 412 -309 304 -348 q 671 -254 519 -270 q 873 -203 866 -237 q 874 -195 874 -199 q 832 -170 874 -170 q 783 -119 783 -170 q 834 -68 783 -68 q 957 -101 921 -68 q 983 -165 983 -124 q 979 -199 983 -180 q 903 -297 966 -259 l 1077 -396 q 1118 -448 1118 -420 q 1111 -474 1118 -461 q 1072 -498 1097 -498 q 1026 -484 1052 -498 l 779 -342 z "},"ឭ":{"ha":1199,"x_min":149,"x_max":1131,"o":"m 282 302 l 256 180 q 252 143 252 158 q 255 121 252 130 q 283 102 261 102 q 346 144 307 102 q 393 226 385 186 q 395 235 395 231 q 382 260 395 249 q 334 286 368 275 l 282 302 m 283 0 q 167 51 198 0 q 149 129 149 81 q 157 203 149 161 l 277 763 q 345 924 296 860 q 470 1018 393 987 l 488 1018 q 654 927 575 1018 l 722 844 l 782 913 q 895 983 842 983 q 997 947 948 983 q 1081 853 1046 911 q 1124 747 1116 795 q 1131 672 1131 698 q 1122 600 1131 646 l 1008 63 q 985 16 1001 31 q 943 0 968 0 q 907 20 916 0 q 903 45 903 31 q 907 81 903 61 l 1022 618 q 1029 672 1029 654 q 1024 724 1029 689 q 994 800 1019 758 q 941 862 968 842 q 890 882 915 882 l 787 758 q 722 720 753 720 q 652 768 690 720 l 584 852 q 489 916 528 916 q 422 857 453 897 q 378 749 392 816 l 304 401 l 372 381 q 477 316 447 359 q 498 246 498 286 q 494 208 498 228 q 416 69 479 138 q 283 0 351 0 m 794 -119 q 845 -68 794 -68 q 968 -101 932 -68 q 994 -165 994 -124 q 989 -199 994 -180 q 901 -304 975 -265 q 693 -357 827 -344 q 468 -400 559 -370 q 327 -479 376 -431 q 264 -513 292 -513 q 233 -499 247 -513 q 218 -467 218 -484 q 250 -410 218 -441 q 422 -309 315 -348 q 682 -254 530 -270 q 884 -203 877 -237 q 885 -195 885 -199 q 843 -170 885 -170 q 794 -119 794 -170 z "},"ឮ":{"ha":1199,"x_min":149,"x_max":1131,"o":"m 282 302 l 256 180 q 252 143 252 158 q 255 121 252 130 q 283 102 261 102 q 346 144 307 102 q 393 226 385 186 q 395 235 395 231 q 382 260 395 249 q 334 286 368 275 l 282 302 m 416 69 q 283 0 351 0 q 167 51 198 0 q 149 129 149 81 q 157 203 149 161 l 277 763 q 345 924 296 860 q 470 1018 393 987 l 488 1018 q 654 927 575 1018 l 722 844 l 782 913 q 895 983 842 983 q 997 947 948 983 q 1081 853 1046 911 q 1124 747 1116 795 q 1131 672 1131 698 q 1122 600 1131 646 l 1008 63 q 985 16 1001 31 q 943 0 968 0 q 907 20 916 0 q 903 45 903 31 q 907 81 903 61 l 1022 618 q 1029 672 1029 654 q 1024 724 1029 689 q 994 800 1019 758 q 941 862 968 842 q 890 882 915 882 l 787 758 q 722 720 753 720 q 652 768 690 720 l 584 852 q 489 916 528 916 q 422 857 453 897 q 378 749 392 816 l 304 401 l 372 381 q 477 316 447 359 q 498 246 498 286 q 494 208 498 228 q 416 69 479 138 m 790 -342 q 693 -357 747 -351 q 468 -400 559 -370 q 327 -479 376 -431 q 264 -513 292 -513 q 233 -499 247 -513 q 218 -467 218 -484 q 250 -410 218 -441 q 422 -309 315 -348 q 682 -254 530 -270 q 884 -203 877 -237 q 885 -195 885 -199 q 843 -170 885 -170 q 794 -119 794 -170 q 845 -68 794 -68 q 968 -101 932 -68 q 994 -165 994 -124 q 989 -199 994 -180 q 914 -297 977 -259 l 1088 -396 q 1129 -448 1129 -420 q 1122 -474 1129 -460 q 1082 -498 1107 -498 q 1037 -484 1063 -498 l 790 -342 z "},"ឯ":{"ha":1119,"x_min":135,"x_max":1009,"o":"m 276 499 q 281 543 281 526 q 264 576 281 576 q 237 526 239 576 q 186 475 237 475 q 135 526 135 475 q 163 628 136 578 q 266 678 191 678 q 369 627 340 678 q 386 551 386 597 q 378 481 386 520 l 328 248 q 408 271 351 271 q 625 178 477 271 l 751 102 q 798 127 769 102 q 837 205 825 154 l 902 509 q 905 540 905 523 q 865 696 905 601 q 696 817 831 757 l 608 858 q 443 979 492 909 q 408 1088 408 1029 q 412 1134 408 1110 q 417 1178 417 1156 q 401 1254 417 1218 q 310 1359 375 1310 q 277 1412 277 1385 q 288 1442 277 1427 q 323 1463 303 1463 q 365 1446 342 1463 q 495 1291 458 1374 q 518 1181 518 1238 q 511 1114 518 1148 q 509 1095 509 1104 q 535 1026 509 1059 q 643 951 568 985 l 740 909 q 964 741 926 833 q 1009 552 1009 635 q 1002 488 1009 518 l 938 190 q 864 47 918 95 q 747 0 810 0 q 586 85 724 0 q 407 170 448 170 q 328 102 366 170 q 220 0 270 0 q 181 39 181 0 q 184 62 181 50 l 197 125 l 276 499 z "},"ឰ":{"ha":1194,"x_min":71,"x_max":1126,"o":"m 277 302 l 252 180 q 247 143 247 158 q 250 121 247 130 q 278 102 256 102 q 341 144 302 102 q 389 226 380 186 q 390 235 390 231 q 378 260 390 249 q 329 286 363 275 l 277 302 m 278 0 q 162 51 193 0 q 144 129 144 81 q 153 203 144 161 l 272 763 q 340 924 292 860 q 465 1018 389 987 l 484 1018 q 650 927 570 1018 l 718 844 l 777 913 q 890 983 837 983 q 992 947 943 983 q 1076 853 1041 911 q 1119 747 1111 795 q 1126 672 1126 698 q 1117 600 1126 646 l 1003 63 q 980 16 996 31 q 938 0 964 0 q 903 20 911 0 q 899 45 899 31 q 903 81 899 61 l 1017 618 q 1025 672 1025 654 q 1019 724 1025 689 q 989 800 1014 758 q 937 862 964 842 q 885 882 910 882 l 783 758 q 717 720 749 720 q 647 768 685 720 l 579 852 q 484 916 524 916 q 418 857 448 897 q 373 749 387 816 l 299 401 l 368 381 q 472 316 442 359 q 493 246 493 286 q 489 208 493 228 q 411 69 475 138 q 278 0 347 0 m 907 -117 q 909 -131 909 -125 q 854 -180 909 -169 l 365 -277 q 230 -317 277 -296 q 178 -363 183 -338 q 176 -378 176 -371 q 184 -407 176 -394 q 222 -441 195 -427 q 280 -460 249 -456 q 306 -461 292 -461 q 346 -458 325 -461 q 397 -429 381 -452 q 412 -374 412 -408 l 412 -355 q 467 -274 412 -285 q 484 -272 475 -272 q 630 -335 541 -272 q 768 -401 724 -401 q 776 -400 772 -401 q 846 -332 819 -393 q 868 -264 868 -286 q 867 -256 868 -259 q 859 -227 859 -239 q 892 -194 859 -203 q 913 -191 903 -191 q 965 -227 947 -191 q 972 -260 972 -241 q 937 -378 972 -305 q 876 -462 911 -432 q 797 -500 842 -492 q 773 -502 785 -502 q 694 -486 738 -502 q 564 -412 636 -464 l 515 -378 l 515 -393 q 488 -497 515 -458 q 391 -553 456 -541 q 313 -559 351 -559 q 266 -557 289 -559 q 155 -521 207 -549 q 83 -449 102 -492 q 71 -391 71 -422 q 76 -347 71 -370 q 155 -245 88 -287 q 342 -178 222 -203 l 837 -80 q 859 -77 848 -77 q 907 -117 899 -77 z "},"ឱ":{"ha":1024,"x_min":165,"x_max":1091,"o":"m 370 629 q 414 645 395 645 q 452 621 437 645 q 460 592 460 606 q 429 546 460 566 q 323 511 372 511 q 273 522 296 511 q 190 635 205 552 q 182 712 182 673 q 194 813 182 761 q 312 962 214 906 q 571 1017 411 1017 q 734 998 636 1017 q 931 883 876 966 q 967 755 967 829 q 957 669 967 715 q 652 431 936 561 q 321 246 369 300 q 269 161 272 191 l 269 157 q 298 116 269 130 q 353 102 330 102 q 447 133 404 102 l 760 374 q 814 395 785 395 q 848 389 830 395 q 881 323 881 376 q 873 263 881 298 l 839 103 q 740 -117 804 -56 q 671 -155 700 -155 q 638 -140 652 -155 q 623 -108 623 -125 q 657 -50 623 -81 q 741 127 715 2 l 767 253 l 521 63 q 350 0 439 0 q 229 36 300 0 q 165 142 165 69 q 166 159 165 150 q 237 312 174 244 q 572 506 299 380 q 860 688 846 632 q 865 737 865 713 q 840 825 865 788 q 711 901 802 878 q 575 916 622 916 q 368 878 433 916 q 290 777 304 840 q 282 711 282 741 q 287 669 282 688 q 314 616 297 624 q 326 613 319 613 q 370 629 342 613 m 954 1038 q 915 1017 935 1017 q 884 1030 899 1017 l 847 1060 q 673 1140 774 1121 q 610 1145 646 1145 q 364 1107 515 1145 l 272 1086 q 237 1081 252 1081 q 209 1089 218 1081 q 200 1112 200 1097 q 205 1142 200 1124 l 232 1221 q 406 1436 284 1377 q 682 1499 529 1496 l 703 1499 q 969 1456 844 1499 l 1036 1433 q 1091 1377 1091 1413 q 1089 1361 1091 1369 q 1046 1328 1080 1328 q 1012 1334 1031 1328 l 948 1356 q 697 1397 824 1397 l 689 1397 q 463 1351 558 1396 q 335 1208 368 1305 q 608 1246 497 1246 q 692 1240 654 1246 q 903 1147 819 1217 l 945 1112 q 968 1072 968 1093 q 954 1038 968 1055 z "},"ឲ":{"ha":1021,"x_min":191,"x_max":977,"o":"m 736 136 q 793 213 786 170 q 794 218 794 215 q 704 296 794 248 q 619 393 619 342 q 621 409 619 401 q 720 493 635 470 q 871 574 860 531 q 872 585 872 580 q 836 627 872 612 q 699 645 793 645 q 633 621 659 645 q 597 550 608 597 q 538 485 581 485 q 530 486 534 485 q 492 533 492 491 q 496 563 492 546 q 572 701 515 654 q 720 747 627 747 q 929 700 866 747 q 977 603 977 665 q 972 560 977 583 q 903 464 960 505 q 739 393 844 422 q 867 295 828 345 q 897 215 897 256 q 894 191 897 203 q 801 59 880 119 q 591 0 723 0 l 512 0 q 342 31 411 0 q 235 125 273 62 q 192 282 197 188 q 191 315 191 298 q 212 501 191 397 l 269 763 q 336 924 288 860 q 465 1006 385 987 q 566 1019 517 1019 q 618 1015 593 1019 q 760 977 690 1003 q 881 912 829 949 q 924 854 924 885 q 920 834 924 844 q 884 810 909 810 q 836 825 864 810 q 720 883 776 861 q 606 913 663 904 q 568 916 587 916 q 497 908 531 916 q 414 857 445 897 q 370 749 384 816 l 311 475 q 294 334 294 396 q 295 312 294 323 q 326 195 299 242 q 403 125 353 149 q 526 102 452 102 l 602 102 q 736 136 686 102 z "},"ឳ":{"ha":1024,"x_min":165,"x_max":1063,"o":"m 861 1143 q 927 1117 895 1117 q 943 1120 943 1117 q 931 1127 943 1122 q 861 1143 895 1135 m 708 1280 q 739 1381 716 1325 q 908 1517 777 1481 q 941 1522 926 1522 q 993 1487 980 1522 q 996 1468 996 1477 q 945 1417 996 1434 q 830 1331 854 1395 q 806 1257 812 1288 q 945 1224 871 1242 q 1063 1110 1063 1190 l 1063 1102 q 926 1015 1057 1015 q 789 1066 851 1015 q 714 1175 736 1109 q 450 1221 496 1221 q 337 1185 385 1221 q 292 1120 292 1149 q 328 1067 292 1092 l 428 1004 q 571 1017 492 1017 q 734 998 636 1017 q 931 883 876 966 q 967 755 967 829 q 957 669 967 715 q 652 431 936 561 q 321 246 369 300 q 269 161 272 191 l 269 157 q 298 116 269 130 q 353 102 330 102 q 447 133 404 102 l 760 374 q 814 395 785 395 q 848 389 830 395 q 881 323 881 376 q 873 263 881 298 l 839 103 q 740 -117 804 -56 q 671 -155 700 -155 q 638 -140 652 -155 q 623 -108 623 -125 q 657 -50 623 -81 q 741 127 715 2 l 767 253 l 521 63 q 350 0 439 0 q 229 36 300 0 q 165 142 165 69 q 166 159 165 150 q 237 312 174 244 q 572 506 299 380 q 860 688 846 632 q 865 737 865 713 q 840 825 865 788 q 711 901 802 878 q 575 916 622 916 q 368 878 433 916 q 290 777 304 840 q 282 711 282 741 q 287 669 282 688 q 314 616 297 624 q 326 613 319 613 q 370 629 342 613 q 414 645 395 645 q 452 621 437 645 q 460 592 460 606 q 429 546 460 566 q 323 511 372 511 q 273 522 296 511 q 190 635 205 552 q 182 712 182 673 q 194 813 182 761 q 302 956 213 901 q 235 1005 250 993 q 202 1048 215 1020 q 190 1116 190 1077 q 208 1192 190 1156 q 264 1259 227 1228 q 356 1307 304 1291 q 448 1323 408 1323 q 708 1280 510 1323 z "},"ា":{"ha":474,"x_min":-262,"x_max":408,"o":"m -257 755 q -262 777 -262 766 q -201 858 -262 814 l -71 954 q 12 1002 -27 985 q 85 1017 50 1017 q 169 992 119 1017 q 281 916 218 966 q 376 821 345 865 q 408 738 408 776 q 395 650 408 708 l 271 61 q 248 15 264 31 q 205 0 232 0 q 170 18 179 0 q 165 43 165 28 q 168 71 165 55 l 294 660 q 305 741 305 717 q 213 841 305 766 q 86 916 120 916 q -14 869 52 916 l -151 770 q -226 736 -198 736 q -257 755 -247 736 z "},"ិ":{"ha":0,"x_min":-884,"x_max":42,"o":"m -12 1102 q -62 1115 -33 1105 q -413 1181 -176 1152 l -654 1213 q -837 1282 -779 1223 q -878 1352 -865 1311 q -882 1374 -880 1363 q -884 1415 -884 1393 q -883 1448 -884 1430 q -817 1594 -873 1539 q -661 1664 -761 1647 q -599 1668 -629 1668 q -500 1655 -549 1668 q -343 1577 -421 1634 q -174 1443 -245 1507 q -58 1324 -103 1380 q 41 1145 31 1212 q 42 1134 42 1139 q 21 1103 42 1109 l 6 1101 q -12 1102 -1 1101 m -393 1282 q -107 1230 -218 1257 q -236 1361 -168 1297 q -397 1493 -305 1426 q -522 1555 -460 1538 q -600 1566 -562 1566 q -644 1563 -623 1566 q -756 1514 -722 1550 q -785 1438 -785 1485 q -784 1419 -785 1429 q -745 1350 -779 1377 q -646 1316 -710 1324 l -393 1282 z "},"ី":{"ha":0,"x_min":-875,"x_max":115,"o":"m 12 1101 q 2 1101 7 1101 q -44 1109 -16 1101 q -401 1175 -163 1148 l -642 1204 q -825 1270 -766 1212 q -867 1340 -854 1299 q -871 1362 -870 1351 q -875 1408 -875 1383 q -874 1436 -875 1421 q -810 1582 -865 1527 q -654 1654 -754 1636 q -589 1659 -621 1659 q -493 1647 -541 1659 q -336 1571 -414 1627 q -165 1439 -237 1502 q -47 1321 -93 1377 l -31 1300 q 15 1594 3 1449 q 64 1639 20 1639 l 69 1639 q 114 1605 109 1636 q 115 1594 115 1600 l 115 1587 q 62 1249 98 1410 l 38 1140 q 12 1101 31 1104 m -382 1276 q -95 1226 -206 1252 q -226 1356 -157 1293 q -389 1487 -296 1420 q -514 1547 -452 1531 q -589 1557 -551 1557 q -636 1553 -612 1557 q -747 1503 -713 1539 q -776 1429 -776 1474 q -774 1409 -776 1419 q -734 1340 -769 1366 q -635 1306 -700 1314 l -382 1276 z "},"ឹ":{"ha":0,"x_min":-912,"x_max":201,"o":"m -423 1286 q -137 1230 -248 1258 q -264 1363 -197 1299 q -425 1497 -333 1428 q -549 1560 -487 1543 q -631 1572 -590 1572 q -671 1569 -651 1572 q -783 1522 -747 1558 q -812 1445 -812 1493 q -812 1428 -812 1437 q -773 1358 -808 1385 q -675 1322 -739 1332 l -423 1286 m -92 1524 q -105 1515 -92 1524 q -130 1474 -118 1505 q -138 1431 -138 1453 q -136 1413 -138 1422 q -112 1357 -132 1383 q -62 1320 -92 1331 q -20 1312 -41 1312 q -1 1314 -10 1312 q 54 1338 28 1318 q 91 1388 79 1358 q 99 1432 99 1410 q 98 1449 99 1440 q 73 1505 93 1479 q 23 1541 53 1531 q -19 1549 2 1549 q -37 1548 -28 1549 q -92 1524 -66 1544 m -12 1210 q 10 1143 6 1172 q 11 1133 11 1138 q -10 1103 11 1109 l -25 1101 q -43 1101 -33 1101 q -93 1115 -64 1105 q -444 1185 -206 1154 l -684 1220 q -866 1291 -808 1231 q -906 1362 -895 1320 q -910 1383 -909 1373 q -912 1421 -912 1401 q -911 1457 -912 1438 q -843 1603 -899 1549 q -686 1670 -787 1655 q -629 1674 -657 1674 q -525 1660 -576 1674 q -369 1581 -446 1638 q -235 1474 -294 1526 q -224 1512 -231 1493 q -155 1604 -203 1568 q -52 1648 -107 1640 q -19 1651 -36 1651 q 59 1636 20 1651 q 152 1568 115 1616 q 198 1462 190 1519 q 201 1428 201 1445 q 186 1350 201 1389 q 117 1257 165 1293 q 13 1213 69 1221 q -12 1210 0 1211 z "},"ឺ":{"ha":0,"x_min":-887,"x_max":104,"o":"m -281 1396 q -400 1488 -335 1441 q -525 1549 -463 1532 q -602 1560 -564 1560 q -647 1556 -625 1560 q -759 1506 -724 1542 q -787 1432 -787 1477 q -786 1411 -787 1422 q -746 1343 -781 1369 q -647 1309 -711 1317 l -394 1277 q -107 1227 -218 1253 q -212 1334 -157 1282 q -230 1331 -220 1331 q -244 1332 -237 1331 q -283 1380 -283 1341 q -281 1396 -283 1388 m -170 1434 q -60 1322 -102 1375 l -43 1300 q 4 1594 -9 1449 q 53 1639 9 1639 l 58 1639 q 104 1605 98 1636 q 104 1596 104 1600 q 104 1587 104 1592 q 50 1248 86 1410 l 26 1140 q -1 1101 18 1104 q -10 1101 -5 1101 q -56 1109 -28 1101 q -413 1176 -175 1149 l -654 1206 q -838 1274 -779 1215 q -879 1343 -867 1302 q -883 1364 -882 1354 q -887 1411 -887 1386 q -886 1438 -887 1424 q -820 1585 -876 1531 q -665 1656 -765 1639 q -599 1662 -632 1662 q -504 1649 -551 1662 q -347 1573 -425 1628 q -258 1508 -299 1539 l -231 1644 q -185 1691 -220 1691 q -168 1689 -177 1691 q -127 1639 -127 1678 q -130 1618 -127 1630 l -170 1434 z "},"ុ":{"ha":0,"x_min":-568,"x_max":-407,"o":"m -528 -441 q -568 -399 -568 -441 q -566 -373 -568 -388 l -510 -115 q -448 -68 -500 -68 q -407 -109 -407 -68 q -410 -136 -407 -121 l -465 -390 q -528 -441 -476 -441 z "},"ូ":{"ha":0,"x_min":-620,"x_max":-230,"o":"m -268 -68 q -230 -103 -230 -68 q -237 -141 -230 -119 l -272 -233 q -366 -415 -317 -354 q -475 -476 -415 -476 q -603 -408 -570 -476 q -620 -317 -620 -372 q -607 -205 -620 -269 l -589 -121 q -526 -68 -577 -68 q -486 -112 -486 -68 q -489 -142 -486 -125 l -507 -227 q -518 -310 -518 -277 q -515 -338 -518 -326 q -477 -374 -507 -374 q -428 -332 -453 -374 q -370 -208 -403 -291 l -340 -125 q -268 -68 -321 -68 z "},"ួ":{"ha":0,"x_min":-713,"x_max":-188,"o":"m -225 -68 q -188 -104 -188 -68 q -195 -141 -188 -119 l -236 -324 q -365 -471 -264 -471 q -529 -395 -429 -471 q -587 -370 -562 -370 q -608 -418 -598 -370 q -672 -471 -620 -471 q -713 -431 -713 -471 q -710 -407 -713 -420 l -648 -121 q -585 -68 -636 -68 q -545 -112 -545 -68 q -548 -142 -545 -125 l -576 -267 q -463 -318 -530 -267 q -373 -370 -397 -370 q -335 -300 -349 -370 l -297 -125 q -225 -68 -279 -68 z "},"ើ":{"ha":0,"x_min":-875,"x_max":115,"o":"m 12 1101 q 2 1101 7 1101 q -44 1109 -16 1101 q -401 1175 -163 1148 l -642 1204 q -825 1270 -766 1212 q -867 1340 -854 1299 q -871 1362 -870 1351 q -875 1408 -875 1383 q -874 1436 -875 1421 q -810 1582 -865 1527 q -654 1654 -754 1636 q -589 1659 -621 1659 q -493 1647 -541 1659 q -336 1571 -414 1627 q -165 1439 -237 1502 q -47 1321 -93 1377 l -31 1300 q 15 1594 3 1449 q 64 1639 20 1639 l 69 1639 q 114 1605 109 1636 q 115 1594 115 1600 l 115 1587 q 62 1249 98 1410 l 38 1140 q 12 1101 31 1104 m -382 1276 q -95 1226 -206 1252 q -226 1356 -157 1293 q -389 1487 -296 1420 q -514 1547 -452 1531 q -589 1557 -551 1557 q -636 1553 -612 1557 q -747 1503 -713 1539 q -776 1429 -776 1474 q -774 1409 -776 1419 q -734 1340 -769 1366 q -635 1306 -700 1314 l -382 1276 z "},"ឿ":{"ha":619,"x_min":-504,"x_max":548,"o":"m 163 1357 q 150 1355 157 1355 q 131 1358 141 1355 q 96 1396 96 1367 q 99 1413 96 1404 q -12 1497 50 1454 q -132 1555 -71 1537 q -229 1569 -180 1569 q -252 1569 -241 1569 q -368 1535 -330 1563 q -402 1466 -402 1511 l -402 1459 q -368 1400 -401 1423 q -272 1365 -336 1377 l -23 1322 q 259 1262 150 1291 q 163 1357 214 1311 m 441 1016 q 443 1034 443 1025 q 398 1103 443 1075 l 300 1137 q -50 1224 184 1181 l -288 1269 q -465 1343 -411 1286 q -500 1410 -492 1371 q -503 1430 -503 1419 q -504 1447 -504 1438 q -499 1497 -504 1470 q -422 1625 -482 1579 q -262 1678 -363 1670 q -229 1679 -245 1679 q -102 1659 -164 1679 q 49 1579 -24 1634 q 130 1513 93 1545 l 176 1656 q 220 1696 189 1696 q 242 1692 231 1696 q 278 1650 278 1681 q 274 1626 278 1639 l 213 1440 q 314 1330 275 1381 l 329 1309 q 400 1572 375 1442 q 444 1609 407 1609 q 458 1609 450 1609 q 500 1569 500 1602 q 498 1558 500 1564 q 417 1255 467 1399 l 408 1227 l 434 1211 q 548 1045 548 1152 q 543 997 548 1022 l 260 -326 q 68 -475 229 -475 l -329 -475 q -416 -404 -416 -475 q -412 -373 -416 -390 l -360 -130 q -296 -68 -348 -68 q -256 -113 -256 -68 q -260 -144 -256 -126 l -264 -168 l -264 -168 l -308 -373 l 68 -373 q 160 -309 147 -373 l 441 1016 z "},"ៀ":{"ha":642,"x_min":-391,"x_max":667,"o":"m 285 -326 q 92 -475 254 -475 l -304 -475 q -391 -404 -391 -475 q -388 -373 -391 -390 l -336 -130 q -271 -68 -323 -68 q -231 -113 -231 -68 q -235 -144 -231 -126 l -240 -168 l -239 -168 l -283 -373 l 93 -373 q 184 -309 172 -373 l 384 610 l 281 663 q 151 802 151 726 l 151 805 q 213 949 153 882 q 329 1017 272 1017 q 439 985 387 1017 q 500 964 475 964 q 521 968 511 964 q 564 1038 552 981 q 566 1063 566 1050 q 541 1144 566 1106 q 418 1216 509 1194 q 367 1266 367 1232 q 370 1286 367 1276 q 422 1320 383 1320 q 455 1316 437 1320 q 632 1194 586 1280 q 667 1061 667 1129 q 664 1019 667 1040 q 570 863 637 894 q 519 853 547 853 q 395 894 466 853 q 338 916 358 916 q 286 880 317 916 q 254 817 255 844 l 254 816 q 328 754 254 789 l 500 665 l 285 -326 z "},"េ":{"ha":646,"x_min":137,"x_max":588,"o":"m 340 302 l 314 180 q 309 143 309 158 q 313 121 309 130 q 340 102 319 102 q 404 144 364 102 q 451 226 443 186 q 452 235 452 231 q 440 260 452 249 q 391 286 425 275 l 340 302 m 340 0 q 224 51 256 0 q 206 129 206 81 q 215 203 206 161 l 309 641 l 267 663 q 137 802 137 726 l 137 805 q 199 949 139 882 q 315 1017 258 1017 q 455 968 372 1017 l 548 911 q 588 859 588 887 q 581 832 588 846 q 542 806 566 806 q 505 819 526 806 l 412 876 q 323 916 344 916 q 272 880 303 916 q 239 817 241 844 l 239 816 q 313 754 239 789 l 425 696 l 361 401 l 430 381 q 534 316 505 359 q 555 246 555 286 q 551 208 555 228 q 473 69 537 138 q 340 0 409 0 z "},"ែ":{"ha":680,"x_min":-57,"x_max":734,"o":"m 349 302 l 323 180 q 318 143 318 158 q 321 121 318 130 q 349 102 328 102 q 412 144 373 102 q 460 226 452 186 q 461 235 461 231 q 449 260 461 249 q 400 286 434 275 l 349 302 m 349 0 q 233 51 264 0 q 215 129 215 81 q 224 203 215 161 l 317 641 l 275 663 q 146 802 146 726 l 146 805 q 208 949 148 882 q 323 1017 267 1017 q 464 968 381 1017 l 557 911 q 597 859 597 887 q 589 832 597 846 q 551 806 575 806 q 513 819 534 806 l 420 876 q 332 916 353 916 q 281 880 312 916 q 248 817 250 844 l 248 816 q 322 754 248 789 l 433 696 l 370 401 l 439 381 q 543 316 513 359 q 564 246 564 286 q 560 208 564 228 q 482 69 546 138 q 349 0 418 0 m 339 1264 q 340 1279 340 1272 q 303 1318 340 1315 q 296 1318 299 1318 q 251 1280 259 1318 q 250 1272 250 1276 q 332 1229 250 1236 l 339 1264 m 435 1225 q 546 1249 502 1230 q 629 1364 620 1284 q 630 1392 630 1378 q 597 1494 630 1453 q 468 1568 559 1546 q 257 1595 359 1595 l 243 1595 q 31 1556 132 1592 q -8 1548 8 1548 q -51 1575 -39 1548 q -54 1581 -53 1578 q -57 1602 -57 1592 q -26 1644 -57 1629 q -13 1649 -20 1647 q 237 1695 109 1692 q 269 1695 252 1695 q 496 1666 380 1695 q 687 1554 628 1633 q 708 1518 699 1537 q 734 1393 734 1463 q 731 1348 734 1371 q 612 1168 715 1223 q 399 1126 532 1126 q 315 1129 359 1126 q 178 1177 219 1136 q 146 1257 146 1208 q 149 1289 146 1272 q 205 1392 162 1359 q 297 1419 241 1419 q 321 1418 309 1419 q 425 1371 395 1411 q 445 1299 445 1343 q 440 1253 445 1278 l 435 1225 z "},"ៃ":{"ha":678,"x_min":0,"x_max":693,"o":"m 353 302 l 327 180 q 322 143 322 158 q 326 121 322 130 q 353 102 332 102 q 416 144 377 102 q 464 226 456 186 q 465 235 465 231 q 453 260 465 249 q 404 286 438 275 l 353 302 m 353 0 q 237 51 269 0 q 219 129 219 81 q 228 203 219 161 l 321 641 l 279 663 q 150 802 150 726 l 150 805 q 212 949 152 882 q 328 1017 271 1017 q 468 968 385 1017 l 561 911 q 601 859 601 887 q 593 832 601 846 q 555 806 579 806 q 517 819 538 806 l 425 876 q 336 916 357 916 q 285 880 316 916 q 252 817 254 844 l 252 816 q 326 754 252 789 l 437 696 l 374 401 l 443 381 q 547 316 517 359 q 568 246 568 286 q 564 208 568 228 q 486 69 550 138 q 353 0 422 0 m 415 1338 q 455 1293 455 1330 q 452 1272 455 1283 q 448 1237 448 1253 q 454 1206 448 1219 q 496 1180 465 1183 q 504 1179 500 1179 q 548 1203 529 1179 q 583 1289 571 1230 q 587 1325 587 1309 q 571 1377 587 1358 q 485 1405 546 1405 l 482 1405 q 393 1460 421 1406 l 354 1529 q 259 1599 315 1599 q 99 1533 202 1599 q 45 1513 68 1513 q 9 1532 24 1513 q 1 1550 3 1540 q 0 1558 0 1554 q 40 1610 0 1584 q 206 1689 134 1672 q 258 1696 234 1696 q 443 1575 377 1696 l 482 1502 l 486 1502 q 660 1448 610 1502 q 688 1395 680 1425 q 693 1348 693 1373 q 686 1283 693 1318 q 609 1124 661 1173 q 499 1082 564 1082 q 474 1083 487 1082 q 362 1144 392 1094 q 344 1219 344 1174 q 353 1287 344 1249 q 401 1339 363 1339 q 415 1338 408 1339 z "},"ោ":{"ha":474,"x_min":-262,"x_max":408,"o":"m -257 755 q -262 777 -262 766 q -201 858 -262 814 l -71 954 q 12 1002 -27 985 q 85 1017 50 1017 q 169 992 119 1017 q 281 916 218 966 q 376 821 345 865 q 408 738 408 776 q 395 650 408 708 l 271 61 q 248 15 264 31 q 205 0 232 0 q 170 18 179 0 q 165 43 165 28 q 168 71 165 55 l 294 660 q 305 741 305 717 q 213 841 305 766 q 86 916 120 916 q -14 869 52 916 l -151 770 q -226 736 -198 736 q -257 755 -247 736 z "},"ៅ":{"ha":474,"x_min":-262,"x_max":469,"o":"m 392 795 q 408 738 408 765 q 395 650 408 708 l 271 61 q 248 15 264 31 q 205 0 232 0 q 170 18 179 0 q 165 43 165 28 q 168 71 165 55 l 294 660 q 305 741 305 717 q 213 841 305 766 q 86 916 120 916 q -14 869 52 916 l -151 770 q -226 736 -198 736 q -257 755 -247 736 q -262 777 -262 766 q -201 858 -262 814 l -71 954 q 12 1002 -27 985 q 85 1017 50 1017 q 169 992 119 1017 q 281 916 218 966 q 309 892 296 903 l 365 1154 q 367 1170 367 1162 q 343 1224 367 1200 q 273 1255 313 1255 l 138 1255 q 71 1305 71 1255 q 139 1356 71 1356 l 275 1356 q 420 1291 357 1356 q 469 1176 469 1240 q 465 1135 469 1156 l 392 795 z "},"ំ":{"ha":0,"x_min":-677,"x_max":-305,"o":"m -407 1305 q -428 1369 -407 1348 q -492 1390 -449 1390 q -555 1369 -534 1390 q -576 1305 -576 1348 q -555 1242 -576 1263 q -492 1221 -534 1221 q -428 1242 -449 1221 q -407 1305 -407 1263 m -492 1491 q -400 1467 -445 1491 q -331 1398 -356 1442 q -305 1304 -305 1353 q -330 1212 -305 1256 q -399 1143 -355 1168 q -492 1119 -443 1119 q -584 1143 -540 1119 q -653 1212 -629 1168 q -677 1304 -677 1256 q -652 1398 -677 1353 q -583 1467 -627 1442 q -492 1491 -538 1491 z "},"ះ":{"ha":678,"x_min":142,"x_max":650,"o":"m 549 832 q 528 896 549 875 q 465 917 507 917 q 401 896 422 917 q 380 832 380 875 q 401 768 380 789 q 465 747 422 747 q 528 768 507 747 q 549 832 549 789 m 465 1017 q 556 993 511 1017 q 625 924 600 969 q 650 831 650 880 q 626 739 650 783 q 557 670 602 694 q 465 646 513 646 q 372 670 416 646 q 303 739 328 694 q 279 831 279 783 q 303 924 279 880 q 373 993 328 969 q 465 1017 417 1017 m 412 186 q 391 250 412 229 q 328 271 370 271 q 264 250 285 271 q 243 186 243 229 q 264 123 243 144 q 328 102 285 102 q 391 123 370 102 q 412 186 412 144 m 328 372 q 419 348 374 372 q 489 279 463 323 q 514 186 514 234 q 489 93 514 137 q 420 24 465 49 q 328 0 376 0 q 235 24 279 0 q 166 93 191 49 q 142 186 142 137 q 167 279 142 234 q 236 348 192 323 q 328 372 281 372 z "},"ៈ":{"ha":576,"x_min":142,"x_max":517,"o":"m 397 917 q 456 901 428 917 q 501 857 485 886 q 517 798 517 829 q 501 738 517 766 q 457 694 486 710 q 397 679 429 679 q 338 694 367 679 q 294 738 310 710 q 279 798 279 766 q 295 857 279 829 q 339 901 311 886 q 397 917 368 917 m 260 237 q 318 221 290 237 q 363 178 347 206 q 379 118 379 149 q 363 59 379 87 q 319 16 348 31 q 260 0 291 0 q 201 16 230 0 q 157 59 173 31 q 142 118 142 87 q 158 178 142 149 q 202 221 174 206 q 260 237 231 237 z "},"៉":{"ha":0,"x_min":-782,"x_max":-290,"o":"m -430 1119 q -469 1165 -469 1119 q -465 1202 -469 1181 l -394 1533 q -330 1594 -381 1594 q -290 1548 -290 1594 q -294 1515 -290 1534 l -366 1177 q -430 1119 -378 1119 m -743 1139 q -782 1185 -782 1139 q -778 1222 -782 1201 l -706 1567 q -642 1628 -693 1628 q -602 1582 -602 1628 q -606 1549 -602 1568 l -679 1197 q -743 1139 -692 1139 z "},"៊":{"ha":0,"x_min":-1119,"x_max":-32,"o":"m -992 1086 q -1000 1085 -996 1085 q -1068 1115 -1025 1085 q -1119 1229 -1119 1150 q -1045 1343 -1119 1308 q -865 1379 -971 1379 q -621 1293 -732 1379 q -536 1243 -553 1243 q -444 1287 -518 1243 q -285 1338 -370 1338 q -115 1259 -199 1338 l -73 1219 q -32 1139 -32 1179 q -69 1089 -32 1098 q -84 1087 -77 1087 q -120 1109 -109 1087 q -188 1186 -134 1136 q -289 1236 -241 1236 q -374 1211 -337 1236 q -540 1155 -485 1155 q -684 1213 -594 1155 q -863 1277 -774 1277 q -972 1270 -928 1277 q -1017 1233 -1017 1262 q -981 1179 -1017 1204 q -953 1137 -953 1160 q -956 1123 -953 1131 q -992 1086 -966 1092 z "},"់":{"ha":0,"x_min":-626,"x_max":-446,"o":"m -587 1139 q -626 1185 -626 1139 q -622 1222 -626 1201 l -550 1567 q -486 1628 -537 1628 q -446 1582 -446 1628 q -450 1549 -446 1568 l -523 1197 q -587 1139 -536 1139 z "},"៌":{"ha":0,"x_min":-925,"x_max":-128,"o":"m -212 1140 q -250 1118 -231 1118 q -282 1132 -266 1118 l -319 1162 q -493 1242 -391 1223 q -553 1247 -520 1247 q -761 1209 -640 1247 l -853 1187 q -888 1183 -873 1183 q -916 1191 -907 1183 q -925 1214 -925 1198 q -920 1244 -925 1226 l -893 1322 q -719 1538 -841 1479 q -497 1601 -596 1598 l -481 1601 q -251 1558 -375 1601 l -184 1535 q -128 1478 -128 1515 q -131 1463 -128 1471 q -174 1430 -140 1430 q -208 1436 -189 1430 l -272 1457 q -485 1499 -396 1499 l -490 1499 q -662 1453 -567 1497 q -790 1310 -757 1407 q -555 1348 -656 1348 q -473 1341 -511 1348 q -262 1249 -347 1318 l -221 1214 q -197 1173 -197 1194 q -212 1140 -197 1157 z "},"៍":{"ha":0,"x_min":-887,"x_max":-1,"o":"m -463 1170 l -463 1169 q -530 1119 -463 1119 q -774 1190 -659 1119 q -880 1301 -859 1240 q -887 1343 -887 1322 q -859 1434 -887 1386 q -730 1503 -814 1502 q -528 1436 -648 1503 q -506 1430 -517 1430 q -448 1476 -476 1430 l -401 1549 q -308 1657 -356 1621 q -209 1695 -260 1693 l -203 1695 q -110 1672 -155 1695 q -19 1598 -63 1648 q -1 1559 -1 1578 q -19 1522 -1 1540 q -54 1504 -37 1504 q -88 1522 -71 1504 q -200 1593 -149 1593 l -202 1593 q -309 1506 -254 1592 l -360 1424 q -460 1331 -406 1351 q -501 1324 -479 1324 q -578 1345 -538 1324 q -705 1399 -656 1390 q -730 1402 -719 1402 q -772 1384 -759 1402 q -779 1357 -779 1371 q -770 1327 -779 1342 q -707 1273 -753 1299 q -530 1221 -612 1221 q -463 1170 -463 1221 z "},"៎":{"ha":0,"x_min":-759,"x_max":-326,"o":"m -499 1324 l -526 1197 q -591 1139 -539 1139 q -630 1185 -630 1139 q -625 1222 -630 1201 l -599 1347 l -701 1371 q -759 1423 -759 1384 q -758 1436 -759 1429 q -707 1474 -749 1474 q -677 1470 -694 1474 l -578 1447 l -553 1567 q -489 1628 -541 1628 q -449 1582 -449 1628 q -453 1549 -449 1568 l -479 1424 l -385 1402 q -326 1351 -326 1389 q -328 1337 -326 1345 q -379 1299 -337 1299 q -409 1303 -393 1299 l -499 1324 z "},"៏":{"ha":0,"x_min":-929,"x_max":-16,"o":"m -460 1196 q -516 1112 -471 1112 q -659 1181 -561 1112 q -716 1206 -693 1206 q -741 1195 -732 1206 q -881 1112 -814 1112 q -924 1140 -914 1112 q -929 1173 -929 1154 q -923 1225 -929 1196 l -888 1392 q -806 1516 -868 1484 q -731 1532 -774 1532 q -642 1518 -691 1532 l -524 1486 q -504 1483 -513 1483 q -429 1532 -462 1483 l -416 1549 q -323 1657 -355 1636 q -224 1695 -275 1693 l -218 1695 q -125 1672 -170 1695 q -34 1598 -78 1648 q -16 1559 -16 1578 q -34 1522 -16 1540 q -69 1504 -52 1504 q -103 1522 -86 1504 q -215 1593 -164 1593 l -217 1593 q -323 1506 -261 1593 l -342 1474 q -441 1394 -386 1414 q -503 1383 -471 1383 q -565 1392 -533 1383 l -673 1423 q -718 1430 -698 1430 q -751 1423 -736 1430 q -788 1370 -780 1409 l -808 1275 q -726 1316 -773 1316 l -720 1316 q -602 1266 -667 1314 l -557 1234 q -500 1281 -552 1281 q -456 1234 -456 1281 q -457 1217 -456 1226 l -460 1196 z "},"័":{"ha":0,"x_min":-644,"x_max":68,"o":"m -475 1424 q -398 1403 -424 1424 q -373 1339 -373 1382 q -424 1289 -373 1289 q -475 1322 -475 1289 q -541 1289 -541 1322 q -507 1238 -541 1255 q -407 1221 -473 1221 q -127 1272 -220 1221 q -34 1411 -34 1322 q -71 1527 -34 1480 q -184 1591 -109 1574 q -233 1637 -233 1602 q -231 1653 -233 1645 q -180 1691 -220 1691 q -155 1688 -169 1691 q 12 1592 -43 1663 q 68 1411 68 1521 q -51 1196 68 1272 q -407 1119 -170 1119 q -585 1162 -526 1119 q -644 1289 -644 1204 q -602 1390 -644 1356 q -475 1424 -559 1424 z "},"៑":{"ha":0,"x_min":-949,"x_max":-136,"o":"m -203 1221 q -136 1170 -136 1221 q -203 1119 -136 1119 l -875 1119 q -949 1170 -949 1119 q -875 1221 -949 1221 l -203 1221 z "},"្":{"ha":0,"x_min":-576,"x_max":-305,"o":"m -305 -305 l -407 -305 l -407 -407 l -475 -407 l -475 -305 l -576 -305 l -576 -237 l -475 -237 l -475 -136 l -407 -136 l -407 -237 l -305 -237 l -305 -305 z "},"៓":{"ha":0,"x_min":-695,"x_max":-356,"o":"m -627 1187 q -602 1136 -627 1153 q -526 1119 -576 1119 q -449 1136 -475 1119 q -424 1187 -424 1153 q -449 1238 -424 1221 q -526 1255 -475 1255 q -602 1238 -576 1255 q -627 1187 -627 1221 m -356 1187 q -399 1085 -356 1119 q -526 1051 -441 1051 q -652 1085 -610 1051 q -695 1187 -695 1119 q -652 1289 -695 1255 q -526 1322 -610 1322 q -399 1289 -441 1322 q -356 1187 -356 1255 z "},"។":{"ha":949,"x_min":203,"x_max":905,"o":"m 407 1017 q 475 966 475 1017 q 407 916 475 916 q 330 890 356 916 q 305 814 305 865 q 339 737 305 763 q 441 712 373 712 q 677 778 576 712 q 801 956 777 843 q 865 1017 814 1017 q 905 974 905 1017 q 901 943 905 960 l 714 58 q 650 -1 701 -1 q 610 45 610 -1 q 614 77 610 59 l 745 697 q 441 610 623 610 q 256 661 309 610 q 203 814 203 712 q 254 966 203 916 q 407 1017 305 1017 z "},"៕":{"ha":1255,"x_min":203,"x_max":1190,"o":"m 407 1017 q 475 966 475 1017 q 407 916 475 916 q 330 890 356 916 q 305 814 305 865 q 339 737 305 763 q 441 712 373 712 q 677 778 576 712 q 801 956 777 843 q 865 1017 814 1017 q 905 974 905 1017 q 901 943 905 960 l 714 58 q 650 -1 701 -1 q 610 45 610 -1 q 614 77 610 59 l 745 697 q 441 610 623 610 q 256 661 309 610 q 203 814 203 712 q 254 966 203 916 q 407 1017 305 1017 m 1086 956 q 1150 1017 1099 1017 q 1190 974 1190 1017 q 1186 943 1190 960 l 999 58 q 935 -1 986 -1 q 895 45 895 -1 q 899 77 895 59 l 1086 956 z "},"៖":{"ha":717,"x_min":70,"x_max":720,"o":"m 549 832 q 528 896 549 875 q 465 917 507 917 q 401 896 422 917 q 380 832 380 875 q 401 768 380 789 q 465 747 422 747 q 528 768 507 747 q 549 832 549 789 m 465 1017 q 556 993 511 1017 q 625 924 600 969 q 650 831 650 880 q 626 739 650 783 q 557 670 602 694 q 465 646 513 646 q 372 670 416 646 q 303 739 328 694 q 279 831 279 783 q 303 924 279 880 q 373 993 328 969 q 465 1017 417 1017 m 412 186 q 391 250 412 229 q 328 271 370 271 q 264 250 285 271 q 243 186 243 229 q 264 123 243 144 q 328 102 285 102 q 391 123 370 102 q 412 186 412 144 m 328 372 q 419 348 374 372 q 489 279 463 323 q 514 186 514 234 q 489 93 514 137 q 420 24 465 49 q 328 0 376 0 q 235 24 279 0 q 166 93 191 49 q 142 186 142 137 q 167 279 142 234 q 236 348 192 323 q 328 372 281 372 m 653 557 q 720 506 720 557 q 653 455 720 455 l 144 455 q 70 506 70 455 q 144 557 70 557 l 653 557 z "},"ៗ":{"ha":1051,"x_min":170,"x_max":1000,"o":"m 231 51 q 298 102 231 102 l 515 102 q 672 136 614 102 q 744 238 729 170 l 880 884 q 618 746 695 746 q 460 831 543 746 q 339 916 378 916 q 281 831 299 916 q 277 795 277 810 q 318 746 277 746 q 373 695 373 746 q 323 644 373 644 q 194 690 231 644 q 170 771 170 721 q 177 831 170 798 q 237 970 197 924 q 340 1017 278 1017 q 497 932 415 1017 q 624 848 578 848 q 860 986 669 848 q 960 1017 892 1017 q 1000 974 1000 1017 q 996 943 1000 960 l 842 212 q 738 53 820 106 q 515 0 656 0 l 298 0 q 231 51 231 0 z "},"៘":{"ha":3534,"x_min":203,"x_max":3501,"o":"m 407 1017 q 475 966 475 1017 q 407 916 475 916 q 330 890 356 916 q 305 814 305 865 q 339 737 305 763 q 441 712 373 712 q 677 778 576 712 q 801 956 777 843 q 865 1017 814 1017 q 905 974 905 1017 q 901 943 905 960 l 714 58 q 650 -1 701 -1 q 610 45 610 -1 q 614 77 610 59 l 745 697 q 441 610 623 610 q 256 661 309 610 q 203 814 203 712 q 254 966 203 916 q 407 1017 305 1017 m 1220 302 l 1194 180 q 1190 143 1190 158 q 1193 121 1190 130 q 1221 102 1199 102 q 1284 144 1244 102 q 1331 226 1323 186 q 1333 235 1333 231 q 1320 260 1333 249 q 1272 286 1305 275 l 1220 302 m 1221 0 q 1105 51 1136 0 q 1086 129 1086 81 q 1095 203 1086 161 l 1215 763 q 1282 924 1234 860 q 1411 1006 1331 987 q 1499 1017 1456 1017 q 1564 1010 1532 1017 q 1706 968 1636 996 q 1845 882 1775 940 q 1931 760 1916 825 q 1940 692 1940 728 q 1930 609 1940 654 l 1822 102 l 2140 102 q 2251 149 2199 102 q 2319 267 2304 195 l 2378 542 l 2275 595 q 2145 734 2145 659 l 2145 737 q 2207 882 2147 814 q 2323 949 2266 949 q 2463 900 2380 949 l 2556 844 q 2596 791 2596 819 q 2589 764 2596 778 q 2550 739 2574 739 q 2513 751 2534 739 l 2420 808 q 2332 848 2352 848 q 2280 812 2311 848 q 2247 749 2249 776 l 2247 748 q 2321 686 2247 721 l 2494 597 l 2419 247 q 2318 71 2397 141 q 2137 0 2239 0 l 1799 0 q 1727 25 1748 0 q 1714 69 1714 42 q 1718 102 1714 84 l 1830 630 q 1837 694 1837 665 q 1833 731 1837 714 q 1773 810 1824 770 q 1666 874 1722 851 q 1552 909 1609 897 q 1498 914 1525 914 q 1443 908 1470 914 q 1360 857 1391 897 q 1316 749 1330 816 l 1242 401 l 1310 381 q 1415 316 1385 359 q 1436 246 1436 286 q 1432 208 1436 228 q 1354 69 1417 138 q 1221 0 1289 0 m 3003 1017 q 3071 966 3071 1017 q 3003 916 3071 916 q 2926 890 2952 916 q 2901 814 2901 865 q 2935 737 2901 763 q 3037 712 2969 712 q 3273 778 3172 712 q 3397 956 3373 843 q 3461 1017 3410 1017 q 3501 974 3501 1017 q 3497 943 3501 960 l 3310 58 q 3246 -1 3297 -1 q 3206 45 3206 -1 q 3210 77 3206 59 l 3341 697 q 3037 610 3219 610 q 2852 661 2905 610 q 2799 814 2799 712 q 2850 966 2799 916 q 3003 1017 2901 1017 z "},"៙":{"ha":1051,"x_min":203,"x_max":848,"o":"m 526 0 q 284 119 365 0 q 203 475 203 237 q 284 831 203 712 q 526 949 365 949 q 767 831 686 949 q 848 475 848 712 q 767 119 848 237 q 526 0 686 0 m 526 870 q 345 772 405 870 q 284 475 284 673 q 345 178 284 277 q 526 79 405 79 q 707 178 646 79 q 767 475 767 277 q 707 772 767 673 q 526 870 646 870 m 526 158 q 405 237 445 158 q 365 475 365 317 q 405 712 365 633 q 526 791 445 791 q 646 712 606 791 q 686 475 686 633 q 646 237 686 317 q 526 158 606 158 m 526 712 q 465 653 486 712 q 445 475 445 593 q 465 297 445 356 q 526 237 486 237 q 586 297 566 237 q 606 475 606 356 q 586 653 606 593 q 526 712 566 712 z "},"៚":{"ha":2374,"x_min":136,"x_max":2272,"o":"m 1947 365 q 1936 347 1936 353 q 1937 344 1936 345 q 1945 338 1940 338 q 1954 342 1949 338 q 1954 345 1954 343 q 1947 365 1954 350 m 1046 664 q 1088 753 1088 728 q 1083 767 1088 762 q 1051 783 1067 783 q 1015 760 1032 783 q 1010 744 1010 753 q 1038 676 1010 720 q 1046 664 1042 670 m 1235 298 q 1205 243 1205 260 q 1208 235 1205 238 q 1236 220 1221 220 q 1261 231 1248 220 q 1265 239 1265 233 q 1235 298 1265 257 m 1466 690 q 1493 737 1493 724 q 1491 742 1493 740 q 1469 755 1481 755 q 1449 747 1459 755 q 1445 739 1445 745 q 1466 690 1445 724 m 1619 317 q 1605 298 1605 302 q 1606 296 1605 297 q 1617 291 1611 291 q 1628 294 1622 291 q 1629 297 1629 295 q 1619 317 1629 302 m 1853 664 q 1870 685 1870 681 q 1869 686 1870 686 q 1862 689 1866 689 q 1849 683 1855 689 q 1847 680 1847 682 q 1853 664 1847 674 m 1971 500 q 2030 521 1999 513 q 2207 543 2108 543 q 2272 492 2272 543 q 2205 441 2272 441 l 2123 441 q 2020 418 2065 441 q 2040 367 2034 391 q 2045 331 2045 347 q 2013 264 2045 289 q 1940 235 1974 235 q 1929 236 1934 235 q 1854 284 1889 241 q 1828 351 1828 317 q 1830 371 1828 361 q 1890 452 1840 412 q 1868 484 1880 467 q 1846 513 1856 498 q 1777 454 1815 484 q 1687 379 1724 410 q 1708 331 1700 353 q 1719 275 1719 300 q 1691 215 1719 237 q 1616 186 1651 186 q 1604 186 1610 186 q 1527 238 1563 193 q 1512 285 1512 258 q 1535 358 1512 317 q 1563 398 1547 377 q 1505 475 1539 431 l 1458 533 q 1382 452 1425 495 q 1295 366 1331 404 q 1340 285 1324 321 q 1356 219 1356 248 q 1324 155 1356 178 q 1232 117 1276 117 q 1223 118 1227 117 q 1132 172 1175 122 q 1111 231 1111 197 q 1133 311 1111 266 q 1172 376 1147 341 q 1105 449 1143 408 q 1055 503 1078 477 q 947 362 1010 438 q 663 91 795 181 q 417 0 530 0 q 206 127 277 0 q 136 509 136 254 q 216 890 136 763 q 458 1017 297 1017 q 700 950 619 1017 q 780 749 780 883 q 722 528 780 611 q 545 414 663 444 q 519 410 531 410 q 475 446 485 410 q 472 464 472 456 q 519 511 472 498 q 638 590 598 532 q 678 744 678 648 q 623 872 678 829 q 458 916 568 916 q 293 814 348 916 q 238 513 238 713 l 238 509 q 283 203 238 305 q 418 102 328 102 q 617 180 507 102 q 858 416 727 259 q 991 585 939 514 q 937 682 955 637 q 920 759 920 724 q 949 836 920 804 q 1049 895 999 894 l 1050 895 q 1149 838 1099 895 q 1174 766 1174 810 q 1148 663 1174 722 q 1108 585 1133 627 q 1173 514 1137 552 q 1231 449 1204 480 q 1306 528 1264 486 q 1400 619 1361 579 q 1363 704 1378 659 q 1352 762 1352 736 q 1385 833 1352 808 q 1472 867 1432 867 q 1482 867 1477 867 q 1567 812 1528 861 q 1584 758 1584 789 q 1559 673 1584 722 q 1521 611 1544 644 q 1576 541 1545 580 q 1630 470 1606 504 q 1701 534 1661 500 q 1786 604 1751 574 q 1763 661 1770 635 q 1756 701 1756 682 q 1788 764 1756 741 q 1861 793 1826 793 q 1873 792 1867 793 q 1950 741 1914 787 q 1967 694 1967 721 q 1943 624 1967 663 q 1910 579 1930 603 q 1942 538 1925 561 q 1971 500 1958 519 z "},"៛":{"ha":644,"x_min":102,"x_max":687,"o":"m 417 538 l 432 610 l 329 663 q 199 802 199 726 l 199 805 q 261 949 201 882 q 377 1017 320 1017 q 517 968 435 1017 l 610 911 q 650 859 650 887 q 643 832 650 846 q 604 806 629 806 q 567 819 588 806 l 474 876 q 386 916 406 916 q 334 880 366 916 q 302 817 303 844 l 302 816 q 376 754 302 789 l 548 665 l 519 527 l 637 513 q 687 466 687 509 q 686 457 687 462 q 632 413 681 413 q 617 414 625 413 l 497 427 l 439 152 q 272 0 406 0 q 153 35 204 0 q 102 169 102 71 q 110 271 102 237 q 152 347 121 322 q 235 373 183 373 q 271 324 271 373 l 271 322 q 237 271 271 271 q 209 246 214 271 q 203 172 203 221 q 225 112 203 123 q 272 102 246 102 q 338 170 324 102 l 395 439 l 202 460 q 153 479 168 464 q 140 511 140 491 q 140 518 140 514 q 161 554 143 544 q 198 562 176 562 q 213 562 205 562 l 417 538 z "},"០":{"ha":1017,"x_min":211,"x_max":973,"o":"m 405 975 q 448 996 405 975 q 629 1017 492 1017 q 888 879 765 1017 q 973 628 973 783 q 956 477 973 558 q 808 106 901 213 q 549 0 715 0 l 547 0 q 269 93 382 0 q 211 304 211 140 q 265 731 211 463 q 405 975 317 933 m 365 716 q 310 300 310 440 q 343 163 310 191 q 543 101 419 102 q 736 180 667 101 q 853 481 806 260 q 869 622 869 559 q 812 810 869 741 q 607 916 723 916 q 464 890 525 916 q 365 716 403 865 z "},"១":{"ha":1017,"x_min":180,"x_max":954,"o":"m 485 753 q 519 768 503 768 q 554 748 538 768 q 596 644 596 692 q 561 559 596 598 q 389 475 488 476 q 227 594 290 475 q 180 762 180 684 q 184 811 180 787 q 306 964 205 910 q 551 1017 407 1017 q 833 910 694 1017 q 954 695 951 819 l 954 691 q 909 429 954 566 q 619 126 844 252 q 340 0 395 0 q 286 51 286 0 q 326 102 286 102 q 566 213 366 102 q 818 471 765 324 q 850 665 850 574 l 850 676 q 760 835 846 769 q 545 917 653 917 q 366 879 436 917 q 283 784 295 842 q 281 757 281 771 q 311 652 281 710 q 395 577 349 577 q 470 610 441 577 q 486 646 486 628 q 473 682 486 663 q 462 712 462 697 q 485 753 462 733 z "},"២":{"ha":1565,"x_min":-136,"x_max":1415,"o":"m 697 541 l 697 534 q 652 484 697 491 q 641 483 646 483 q 595 535 602 483 q 591 591 591 566 q 612 694 591 656 q 709 747 640 747 q 844 706 777 747 q 977 583 911 665 q 1085 705 1034 664 q 1183 746 1137 746 q 1274 711 1230 746 q 1359 606 1318 676 q 1411 472 1400 536 q 1415 423 1415 448 q 1404 350 1415 386 l 1367 233 q 1212 59 1331 117 q 892 0 1093 1 q 610 24 731 0 q 433 96 488 48 q 352 203 377 144 q 332 310 332 252 q 332 335 332 322 q 341 549 341 452 q 335 694 341 629 q 279 915 321 840 q 151 1031 236 990 q -62 1081 66 1073 q -136 1133 -136 1086 l -136 1137 q -64 1185 -131 1185 l -58 1185 q 206 1121 100 1173 q 364 975 312 1069 q 435 719 417 881 q 444 528 444 633 q 437 326 444 434 q 436 310 436 318 q 507 165 436 224 q 644 117 545 134 q 901 101 742 101 l 906 101 q 1154 144 1062 101 q 1274 277 1247 189 l 1301 365 q 1310 424 1310 394 q 1273 548 1310 484 q 1182 644 1219 644 q 1055 515 1145 644 q 979 473 1024 473 q 899 516 933 473 q 742 644 798 644 q 703 618 714 644 q 695 573 695 602 q 697 541 695 558 z "},"៣":{"ha":1805,"x_min":189,"x_max":1706,"o":"m 426 366 q 465 394 439 394 q 503 381 481 394 q 602 286 578 342 q 614 225 614 258 q 601 152 614 191 q 534 38 576 76 q 433 0 492 0 q 342 27 389 0 q 248 111 296 55 q 191 268 199 166 q 189 312 189 289 q 214 516 189 399 q 292 763 245 663 q 401 914 338 862 q 531 991 463 966 q 673 1017 599 1017 q 840 947 753 1017 q 1019 736 927 877 q 1238 947 1140 878 q 1413 1018 1337 1018 q 1548 979 1489 1018 q 1650 865 1607 941 q 1703 699 1693 788 q 1706 637 1706 669 q 1692 507 1706 576 l 1598 58 q 1531 0 1584 0 q 1493 42 1493 0 q 1497 74 1493 56 l 1591 522 q 1605 644 1605 587 q 1603 680 1605 663 q 1567 806 1597 751 q 1497 888 1535 861 q 1414 916 1459 916 q 1284 855 1362 916 q 1103 674 1206 795 q 1055 538 1074 640 l 950 61 q 884 0 936 0 q 846 41 846 0 q 850 75 846 55 l 945 548 q 952 604 952 578 q 930 686 952 652 q 790 858 854 801 q 671 916 725 916 q 564 895 616 916 q 465 836 513 876 q 379 713 416 795 q 315 504 342 629 q 291 311 291 389 l 291 296 q 326 177 294 214 q 434 102 391 102 q 503 178 477 102 q 509 217 509 199 q 505 243 509 231 q 465 287 496 271 q 419 342 419 311 q 426 366 419 353 z "},"៤":{"ha":1191,"x_min":112,"x_max":1050,"o":"m 1023 517 q 996 509 1008 509 q 946 544 968 509 q 899 576 927 576 q 840 553 870 576 q 810 475 810 530 q 909 351 810 439 q 1007 170 1007 267 q 1002 124 1007 147 q 774 -1 975 -1 l 639 0 q 237 87 355 0 q 154 277 154 150 q 168 393 154 330 q 287 697 199 557 q 380 1021 376 838 l 380 1024 q 162 1218 380 1097 q 112 1275 112 1242 q 117 1297 112 1286 q 159 1326 131 1326 q 203 1314 178 1326 q 485 1022 485 1162 q 484 1013 485 1017 q 374 640 474 802 q 265 372 299 526 q 255 288 255 326 q 309 160 255 201 q 642 102 387 102 l 778 102 q 903 144 893 102 q 905 167 905 155 q 852 269 905 220 q 709 477 709 392 q 772 630 709 582 q 898 678 836 678 q 1038 589 987 678 q 1050 554 1050 570 q 1023 517 1050 532 z "},"៥":{"ha":1191,"x_min":172,"x_max":1119,"o":"m 467 882 q 476 913 476 901 q 391 1017 476 1017 q 305 949 305 1017 q 391 882 305 882 l 467 882 m 572 882 q 761 932 685 885 q 872 1169 842 983 q 1051 1356 902 1356 q 1119 1305 1119 1356 q 1050 1255 1119 1255 q 968 1148 988 1255 q 821 850 934 921 q 549 780 707 780 l 522 780 q 519 775 520 778 q 390 612 473 705 q 283 372 317 526 q 273 288 273 326 q 326 160 273 201 q 660 102 404 102 l 795 102 q 920 144 911 102 q 922 167 922 155 q 869 269 922 220 q 726 477 726 392 q 789 610 726 562 q 916 658 853 658 q 1055 569 1004 658 q 1067 534 1067 549 q 1041 497 1067 511 q 1013 489 1026 489 q 964 524 985 489 q 916 555 945 555 q 858 532 888 555 q 827 475 827 509 q 926 351 827 439 q 1025 170 1025 267 q 1019 124 1025 147 q 792 -1 992 -1 l 656 0 q 255 87 372 0 q 172 277 172 150 q 186 393 172 330 q 315 682 216 570 q 399 780 365 736 l 389 780 q 203 949 203 780 q 391 1119 203 1119 q 576 914 576 1119 q 572 882 576 899 z "},"៦":{"ha":1051,"x_min":-68,"x_max":949,"o":"m 319 408 q 334 374 334 390 q 313 340 334 355 q 296 302 296 326 q 332 205 296 265 q 533 102 394 102 q 760 309 672 102 q 847 630 847 515 l 847 632 q 803 764 847 747 q 686 781 758 780 q 513 764 614 781 q 355 746 413 747 q 235 836 296 746 q 132 1090 174 927 q 1 1255 91 1255 q -68 1306 -67 1255 q 1 1356 -68 1356 q 218 1160 169 1356 q 309 906 268 964 q 375 848 351 848 q 502 865 399 848 q 686 881 600 881 l 692 881 q 866 849 781 881 q 949 657 949 817 l 949 654 q 844 246 948 492 q 538 0 739 0 q 236 168 336 1 q 188 309 188 249 q 241 412 188 372 q 281 429 262 429 q 319 408 302 429 z "},"៧":{"ha":1199,"x_min":149,"x_max":1196,"o":"m 282 302 l 256 180 q 252 143 252 158 q 255 121 252 130 q 283 102 261 102 q 346 144 307 102 q 393 226 385 186 q 395 235 395 231 q 382 260 395 249 q 334 286 368 275 l 282 302 m 1007 547 q 1009 570 1009 561 q 1004 622 1009 587 q 973 698 998 656 q 921 760 948 741 q 869 780 895 780 l 767 656 q 701 618 733 618 q 631 666 669 618 l 564 751 q 469 814 508 814 q 402 755 433 795 q 357 647 372 714 l 304 401 l 372 381 q 477 316 447 359 q 498 246 498 286 q 494 208 498 228 q 416 69 479 138 q 283 0 351 0 q 167 51 198 0 q 149 129 149 81 q 157 203 149 161 l 256 661 q 324 822 276 758 q 450 916 373 886 l 468 916 q 634 825 555 916 l 702 742 l 762 812 q 874 882 821 882 q 977 845 928 882 q 1053 764 1020 813 l 1085 917 q 1094 990 1094 956 q 1048 1133 1094 1071 q 701 1249 983 1221 q 647 1296 647 1253 q 648 1305 647 1300 q 702 1351 653 1351 q 713 1350 707 1351 q 1128 1195 1035 1321 q 1196 988 1196 1105 q 1185 891 1196 942 l 1105 515 q 1101 498 1103 507 l 1070 353 l 1061 312 l 1008 63 q 985 16 1001 31 q 943 0 968 0 q 907 20 916 0 q 903 45 903 31 q 907 81 903 61 l 966 353 l 1007 547 z "},"៨":{"ha":1187,"x_min":156,"x_max":1251,"o":"m 859 408 q 896 429 876 429 q 937 412 915 429 q 1002 315 986 376 q 1010 254 1010 287 q 1000 170 1010 215 q 941 43 981 85 q 838 0 901 0 q 744 43 796 0 q 629 171 692 85 q 496 43 555 85 q 397 -1 438 -1 q 244 67 313 -1 q 159 269 176 135 q 156 334 156 298 q 197 645 156 456 q 318 835 227 789 q 468 881 410 881 l 469 881 q 683 833 528 881 q 797 814 747 814 q 909 906 836 814 q 964 1009 950 964 q 1044 1172 989 1123 q 1182 1221 1098 1221 q 1251 1171 1251 1221 q 1183 1120 1251 1120 q 1105 1078 1138 1119 q 1059 989 1072 1037 q 983 836 1044 927 q 800 710 899 710 q 659 736 738 711 q 467 781 505 781 q 374 747 433 780 q 296 626 316 715 q 258 341 258 448 q 261 291 258 313 q 315 142 273 181 q 395 102 356 102 q 542 230 435 102 q 628 272 576 272 l 629 272 q 713 229 682 272 q 843 102 807 102 q 901 199 880 102 q 907 246 907 224 q 864 340 907 307 q 844 374 844 355 q 859 408 844 390 z "},"៩":{"ha":1017,"x_min":160,"x_max":1117,"o":"m 643 313 q 680 334 660 334 q 721 317 699 334 q 789 201 789 267 q 768 120 789 163 q 494 0 707 0 l 490 0 q 239 67 307 0 q 162 201 170 135 q 160 233 160 216 q 184 410 160 299 q 427 625 213 551 q 273 819 273 735 q 275 838 273 828 q 375 972 294 928 q 520 1017 456 1017 l 522 1017 q 673 950 585 1017 q 805 882 763 882 q 880 1033 849 882 q 1048 1221 918 1221 q 1117 1171 1117 1221 q 1048 1120 1116 1120 q 979 1015 1002 1119 q 808 780 928 780 q 639 849 729 781 q 515 917 549 917 q 431 889 481 916 q 375 827 382 861 q 374 823 374 825 q 460 725 374 789 q 623 634 545 667 l 734 587 q 774 538 774 569 q 770 517 774 528 q 730 486 759 486 q 695 494 715 486 l 583 542 q 544 549 566 549 q 467 533 511 549 q 279 374 300 475 q 262 247 262 292 q 263 228 262 237 q 309 142 267 181 q 497 102 351 102 q 669 154 644 102 q 678 189 678 172 q 648 245 678 220 q 628 279 628 260 q 643 313 628 295 z "},"​":{"ha":0,"x_min":0,"x_max":0,"o":""},"◌":{"ha":882,"x_min":203,"x_max":746,"o":"m 647 170 q 680 141 680 170 q 649 114 680 114 l 647 114 q 614 142 614 115 q 647 170 614 170 m 693 275 q 727 247 727 275 q 693 219 727 219 q 660 247 660 220 q 693 275 660 275 m 566 77 q 600 49 600 77 q 566 21 600 21 q 533 50 533 22 q 566 77 533 77 m 418 56 q 452 28 452 56 q 420 1 452 1 l 418 1 q 385 28 385 1 q 418 56 385 56 m 320 140 q 354 111 354 140 q 322 84 354 84 l 320 84 q 287 112 287 85 q 320 140 287 140 m 265 244 q 299 216 299 244 q 267 189 299 189 l 265 189 q 232 216 232 189 q 265 244 232 244 m 239 353 q 273 325 273 353 q 241 298 273 298 l 239 298 q 206 326 206 298 q 239 353 206 353 m 237 463 q 271 435 271 463 q 239 408 271 408 l 237 408 q 203 435 203 408 q 237 463 203 463 m 253 573 q 287 545 287 573 q 255 517 287 517 l 253 517 q 220 545 220 518 q 253 573 220 573 m 296 680 q 329 652 329 680 q 296 624 329 624 q 262 652 262 625 q 296 680 262 680 m 374 777 q 407 748 407 777 q 376 721 407 721 l 374 721 q 340 749 340 722 q 374 777 340 777 m 500 812 q 534 783 534 812 q 503 756 534 756 l 500 756 q 467 784 467 757 q 500 812 467 812 m 611 741 q 645 713 645 741 q 613 686 645 686 l 611 686 q 578 713 578 686 q 611 741 578 741 m 678 628 q 712 600 712 628 q 680 572 712 572 l 678 572 q 645 600 645 573 q 678 628 645 628 m 707 519 q 741 491 741 519 q 707 463 741 463 q 673 492 673 464 q 707 519 673 519 m 712 393 q 746 364 746 393 q 714 337 746 337 l 712 337 q 679 365 679 338 q 712 393 679 393 z "}}}
